<svg xmlns="http://www.w3.org/2000/svg" viewBox="0 0 842.98 770.56"><defs><style>.cls-1{fill:#f2f2f2;}.cls-2{fill:#fff;}.cls-3{opacity:0.1;isolation:isolate;}.cls-4{fill:#2f2e41;}.cls-5{fill:#a0616a;}.cls-6{fill:#d0cde1;}.cls-7{fill:#575a89;}.cls-8{fill:#3f3d56;}.cls-9{fill:#eb8760;}</style></defs><g id="Layer_2" data-name="Layer 2"><g id="b4f7138d-771a-4302-9114-b1a94238dcbb"><path class="cls-1" d="M787,457.47A298.8,298.8,0,0,0,766,194.56L288.66,260.65l457.45-95.33A297.76,297.76,0,0,0,509.73,48.94C345,48.94,211.46,182.48,211.46,347.21a301.09,301.09,0,0,0,2.78,40.7Z"/><path class="cls-1" d="M231.4,454.6c43.11,111.66,151.46,190.88,278.33,190.88,119,0,221.79-69.75,269.63-170.61Z"/><path class="cls-2" d="M772,558.34c0,117.21-172.82,212.22-386,212.22-114.52,0-217.39-27.41-288.08-71-46.12-28.41-78.54-63.7-91.55-102.7A121.18,121.18,0,0,1,0,558.34C0,441.13,319.87-87.55,386,346.12S772,441.13,772,558.34Z"/><path class="cls-3" d="M577.82,635.3c0,43.28-136.68,78.37-305.28,78.37-65,0-125.15-5.2-174.63-14.08-46.12-28.41-78.54-63.7-91.55-102.7,52.35-23.85,151.93-40,266.18-40C441.14,556.93,577.82,592,577.82,635.3Z"/><path class="cls-4" d="M357.46,188.91c-24.2-40.88-72.06-42.78-72.06-42.78s-46.65-6-76.57,56.3c-27.89,58-66.38,114.06-6.19,127.65l10.87-33.84,6.73,36.36A237.85,237.85,0,0,0,246,333c64.45-2.08,125.83.61,123.85-22.52C367.22,279.77,380.74,228.25,357.46,188.91Z"/><path class="cls-4" d="M199.2,546.93c-.9,4.46-1.56,9-3.09,13.28s-3.85,8.2-5.23,12.5c-4.42,13.71,1.7,29,11.47,39.58A64.63,64.63,0,0,0,233.84,631c8.81,2.21,18,2.53,27.06,2.84,25.15.85,51,1.62,74.78-6.47a129.24,129.24,0,0,0,21.73-9.87,16.25,16.25,0,0,0,5.64-4.43c1.82-2.59,2.05-5.95,2-9.11-.05-10.66-2.21-21.27-1.7-31.92.28-5.9,1.39-11.79.85-17.68C363,541,352.4,529.08,339.31,526.27c-6.76-1.45-13.78-.66-20.66,0a524.47,524.47,0,0,1-53.76,2.4c-18.34-.11-36.56-2.91-54.81-3.21-5.4-.08-5.29,1.58-7,6.8A128.19,128.19,0,0,0,199.2,546.93Z"/><path class="cls-5" d="M251.24,283.65c-.88,4.62-1.83,9.4-4.6,13.19-3.19,4.36-8.4,6.86-11.83,11-5.16,6.29-5.46,15.13-5.48,23.27,0,7.49.13,15.49,4.31,21.71,2.71,4,6.84,6.87,10.87,9.58C260.19,373,277.12,383.75,296,384.1c7.83.14,16.23-1.88,21.38-7.78a32.42,32.42,0,0,0,5.18-9.23,122.72,122.72,0,0,0,8.68-37.33c.43-6,.39-12.24-1.66-17.93-2.29-6.41-6.93-11.67-10-17.74a39.49,39.49,0,0,1-3.8-23.37,2.52,2.52,0,0,0-.14-1.69,2.44,2.44,0,0,0-2-.82l-37.47-2.7a80.76,80.76,0,0,1-10.4-1.19c-2-.41-7.36-3.28-9.28-2.52C252.91,263.21,252,279.82,251.24,283.65Z"/><path class="cls-3" d="M251.24,284.82c-.88,4.62-1.83,9.4-4.6,13.19-3.19,4.36-8.4,6.86-11.83,11-5.16,6.29-5.46,15.13-5.48,23.27,0,7.49.13,15.49,4.31,21.71,2.71,4,6.84,6.86,10.87,9.58,15.68,10.57,32.61,21.32,51.51,21.67,7.83.14,16.23-1.88,21.38-7.78a32.42,32.42,0,0,0,5.18-9.23,122.72,122.72,0,0,0,8.68-37.33c.43-6,.39-12.24-1.66-17.94-2.29-6.4-6.93-11.66-10-17.73a39.49,39.49,0,0,1-3.8-23.37,2.52,2.52,0,0,0-.14-1.69,2.44,2.44,0,0,0-2-.82l-37.47-2.7a80.76,80.76,0,0,1-10.4-1.19c-2-.41-7.36-3.28-9.28-2.52C252.91,264.38,252,281,251.24,284.82Z"/><circle class="cls-5" cx="287.08" cy="233.7" r="54.97"/><path class="cls-6" d="M259,356.83c2.87,3,5.91,6,9.66,7.72s7.94,2.18,12.06,2.29c9.91.28,20.66-1.53,27.55-8.66,8.89-9.18,8.59-24,15.56-34.71A7.73,7.73,0,0,1,326,321a7.27,7.27,0,0,1,3.82-.88c8.8-.08,16.46,5.62,23.38,11.06,3.09,2.44,6.27,5,8.22,8.38a28.37,28.37,0,0,1,2.78,8.5c3.43,16.75,4.54,33.88,5.65,50.95.61,9.42,1.21,18.86,1.17,28.31-.15,31.11-7.38,61.71-14.58,92-.92,3.9-2.19,8.26-5.74,10.13a14.24,14.24,0,0,1-5,1.23c-20.6,2.42-41.25,4.84-62,5.16q-12.14.18-24.27-.59a13.27,13.27,0,0,1-4.09-.71,11.61,11.61,0,0,1-4.46-3.79C239.68,516.62,239,497.08,239.09,479q.27-66.19,4.73-132.27c.25-3.64.3-8.06-2.32-10.92C246.22,343.4,252.78,350.38,259,356.83Z"/><path class="cls-7" d="M247.31,293.35c-1.86,3.37-15.55,11.71-18.19,14.5-14.77,15.56-41.71,15-55.22,31.65-4.75,5.86-7.22,13.23-9,20.56-2.57,10.36-3.94,21.66.36,31.43,4.14,9.4,12.85,15.9,18.77,24.3,6.49,9.22,9.41,20.42,12.21,31.34,2.07,8.07,4.15,16.34,3.34,24.63-.91,9.42-5.47,18.05-8.16,27.13s-3.16,19.89,3.07,27c4.57,5.24,11.74,7.32,18.6,8.49a213.73,213.73,0,0,0,26.52,2.31c7.84.34,16.48.41,22.51-4.61,4.75-4,6.82-10.4,7.08-16.59s-1-12.32-1.82-18.45c-.84-6.37-1.16-12.79-1.43-19.2q-1.8-43.16-.49-86.37c.18-6,.4-12.07-.87-17.93-1.69-7.7-5.85-14.59-9.33-21.67-6.89-14.06-10.16-27.71-9.09-43.33C247.19,293.14,253.92,281.39,247.31,293.35Z"/><path class="cls-7" d="M324.51,294.52c2.83,2.91,12.44,3.87,16,5.74,3.31,1.72,7,2.62,10.55,3.65a137.12,137.12,0,0,1,37,17,22.5,22.5,0,0,1,6.19,5.35c2,2.8,2.74,6.29,3.43,9.67,1.76,8.73,3.53,17.56,3.13,26.45-.42,9.44-3.26,18.58-6.08,27.6l-10.54,33.7c-7.87,25.15-15.79,50.55-18,76.81a180.52,180.52,0,0,0,1.62,43.63c.23,1.45.43,3.11-.53,4.23a4.27,4.27,0,0,1-2.58,1.19c-5.09.79-10-1.8-14.62-4.1a161.92,161.92,0,0,0-44.63-14.6,103.9,103.9,0,0,0,13.86-28.58,175.13,175.13,0,0,0,4.19-19.65l4.9-28.36c1.8-10.4,3.6-20.82,4.21-31.36a39,39,0,0,0-.69-11.81c-.93-3.75-2.8-7.18-4.47-10.66-8.08-16.8-11.88-36-8.7-54.36,1.39-8.05,4.1-16.1,3-24.18-1.08-7.78,0-13.82-1.95-21.51C311.64,268.79,319.19,289.06,324.51,294.52Z"/><path class="cls-7" d="M173.76,366.07c-3.68,7.65-9.84,14.16-11.94,22.38a49.45,49.45,0,0,0-1,11.7c-.05,5.92-.08,12,1.74,17.59,1.17,3.63,3.07,7,4.44,10.53a38.19,38.19,0,0,1,2.5,15.59c-.37,7.36-2.87,14.51-3.07,21.88-.3,11.59,5.06,22.49,10.29,32.84a24.13,24.13,0,0,1,31.42-13.35,24.67,24.67,0,0,1,3.66,1.86c1.38-1.27,1.53-3.37,1.58-5.25q.58-20.16,1.12-40.34c.57-20.8,1.11-41.87-3.67-62.12-2.16-9.14-5.53-18.25-11.69-25.34-3.24-3.73-14.26-13.57-19.58-9.38-2.4,1.88-1.84,7-2.22,9.59A40.35,40.35,0,0,1,173.76,366.07Z"/><path class="cls-7" d="M402,344c1.74,5.43,1.84,11.23,1.88,16.93q.1,17.43-.46,34.86c-.2,5.95-.46,12-2.27,17.66-1.19,3.74-3,7.25-4.25,11-3.68,11.17-1.67,23.29-1.36,35a39.68,39.68,0,0,1-1,11.34c-1.94,7.29-7.17,13.18-10.81,19.79-3.46,6.27-5.55,13.3-9.69,19.16s-11.29,10.49-18.22,8.69c-5.26-1.36-9-6-11.58-10.79a52.92,52.92,0,0,1-5.47-34.33c2.59-14.27,11-26.93,14-41.12,4.15-19.49-2.16-39.59-2-59.52a28.81,28.81,0,0,1,1.26-9.22c1.58-4.55,5-8.19,8.13-11.84a147.61,147.61,0,0,0,10.94-14.35c2.26-3.36,5.32-12,9.31-12.72C389.35,323,399.74,337.15,402,344Z"/><path class="cls-4" d="M127.49,538.26a54.09,54.09,0,0,0-15.1-1.6,37.67,37.67,0,0,0-35.53,39.69,35.55,35.55,0,0,0,.56,4.72c1,5.72,3.41,11.12,6,16.34,4,8.13,8.8,16.23,16.21,21.44,4.34,3,9.36,4.94,14.31,6.81l39,14.7c5.75,2.17,11.49,4.33,17.29,6.34a338,338,0,0,0,90.27,17.94c9.37.56,18.89.72,28-1.42,2.17-.5,4.48-1.26,5.74-3.1a9.88,9.88,0,0,0,1.28-4.24l2.4-16.81c.34-2.37.67-4.86-.2-7.09-1.1-2.82-3.86-4.6-6.49-6.11-25.66-14.74-55.62-22.87-77.22-43.1-5.08-4.76-9.34-12.31-15.52-15.54-7-3.67-15.25-5.76-22.49-9.14C160.21,550.7,144.64,542.21,127.49,538.26Z"/><path class="cls-3" d="M166.45,560.93c13.8,4.32,72.05,34.27,82,44.73-1.34.48-46.74-25-48.11-25.37-12.38-3.72-24.83-7.46-36.59-12.9-2.37-1.09-15.37-6.24-14.78-9.22C149.66,554.8,164,560.16,166.45,560.93Z"/><path class="cls-5" d="M338.56,673.36a3.24,3.24,0,0,0,2.19-.64,3.35,3.35,0,0,0,.68-2.52l-.06-22.9c-6.59-3.14-13.95-4.15-21.19-5.12l-33.74-4.51c.78.11-5.28,14.54-4.35,16.46,1.64,3.4,14.13,6.41,17.66,8C312,667.72,324.75,673.84,338.56,673.36Z"/><path class="cls-5" d="M232.69,647.22c-6.37,1-13.48,1.91-17.6,6.87-5.24,6.29-3,15.66-.51,23.45a10,10,0,0,0,2.17,4.27c1.7,1.68,4.31,1.93,6.7,2.08,5.81.37,12,.66,17.07-2.19,2.4-1.35,4.39-3.33,6.63-4.93a42.5,42.5,0,0,1,12.19-5.58,123.92,123.92,0,0,1,24.48-5c3.25-.33,6.57-.55,9.64-1.7s5.9-3.44,6.79-6.59c1.17-4.16-1.25-8.41-3.57-12.06-2.89-4.55-5.95-9.33-10.26-12.68-6.29-4.89-9.4-1.14-15.73,2A133.7,133.7,0,0,1,232.69,647.22Z"/><path class="cls-4" d="M216,653l-40.45-12c-4.92-1.46-9.92-2.92-15.05-2.92s-10.5,1.69-13.83,5.59c-3.14,3.68-4,8.72-4.82,13.49l-1.67,10.21c-.85,5.19-1.7,10.48-.94,15.68s3.42,10.4,8,12.92c5.6,3,12.46,1.56,18.71.28a204,204,0,0,1,38.33-4.11c4.85-.06,9.92,0,14.2-2.26,5.09-2.7,8.13-8.4,8.66-14.13C228,667,225.1,655.63,216,653Z"/><path class="cls-4" d="M354.47,642.54c5.24-.92,9.87-3.9,14.89-5.66,7.08-2.48,14.74-2.48,22.24-2.45,2.75,0,5.68.07,8,1.59,3.3,2.2,4.14,6.6,4.71,10.53q1.68,11.84,3.38,23.68c.64,4.46,1.27,9,.28,13.42s-4,8.62-8.34,9.75c-5.29,1.38-10.48-2-15.47-4.22-12.49-5.55-27-4.13-40-8.28-2.41-.77-5-1.94-6-4.28a9.64,9.64,0,0,1-.47-4.09c.22-7.62-1.38-18,.91-25.29C340.63,640.7,348.61,642.54,354.47,642.54Z"/><path class="cls-4" d="M440.08,528.73A70.11,70.11,0,0,1,464.82,527c6.62.73,13.44,2.57,18.27,7.15,5.87,5.57,7.76,14.19,7.92,22.29A69.63,69.63,0,0,1,475.87,601a40.44,40.44,0,0,1-8.65,8.33A56.71,56.71,0,0,1,456,614.72l-87.41,34.47c-23,9.07-46.07,18.17-70.06,24.15a5.46,5.46,0,0,1-7.29-2.54l-.05-.12a180.91,180.91,0,0,1-19.16-35,2.35,2.35,0,0,1,.33-3.32,2.49,2.49,0,0,1,.71-.4l61.83-35.52c4.43-2.55,8.9-5.13,12.58-8.67a31.28,31.28,0,0,0,6.46-9c1.28-2.67,1.4-9,3-11s7.09-2.09,9.62-2.85a88.64,88.64,0,0,0,10.47-4c13.83-6.19,26.14-15.18,39.4-22.42A101.26,101.26,0,0,1,440.08,528.73Z"/><path class="cls-3" d="M405,555.26c-10.62,8-24.38,15.31-34.9,23.5-3.6,2.79-63.49,36.46-64.34,40.93,9.82,1.66,72.39-42.11,81.34-46.47s16.88-10.53,24.75-16.64c2-1.56,10.49-6.24,4.74-8C413.38,547.61,407.42,553.66,405,555.26Z"/><path class="cls-8" d="M331.94,295.3H238.7a14.28,14.28,0,0,0-14.28,14.28v5.23h-1v11.7h1v8.18h-1v7h1V428A14.28,14.28,0,0,0,238.7,442.3h93.24A14.28,14.28,0,0,0,346.23,428V309.58A14.28,14.28,0,0,0,331.94,295.3Z"/><polygon class="cls-4" points="346.76 184.97 299.47 160.2 234.17 170.34 220.66 230.01 254.29 228.72 263.69 206.79 263.69 228.36 279.2 227.76 288.21 192.86 293.84 230.01 349.01 228.89 346.76 184.97"/><path class="cls-5" d="M186.13,521c2.34,3.49,5.08,6.9,8.83,8.78,4.69,2.35,10.48,1.93,15.17-.4a26.78,26.78,0,0,0,11-11c5.13-9.08,6.2-19.94,5.56-30.35s-2.87-20.66-3.85-31c-.72-7.55-.77-15.14-.83-22.73,0-1.59,0-3.31.95-4.59,1.14-1.56,3.23-2,5.07-2.53,10.38-3.08,17.26-12.81,22.2-22.44,3.29-6.43,6.16-13.45,5.52-20.65s-5.81-14.45-13-15.18c-5.93-.61-11.4,3.15-15.68,7.3a67.19,67.19,0,0,0-19.67,39.33c-.94,7.32-.67,14.83-2.66,21.94-4.25,15.17-17.55,24.47-24.18,38.12C173.23,490.62,177.26,507.69,186.13,521Z"/><path class="cls-5" d="M381.81,463.05a28.63,28.63,0,0,1-16.07,15.44,22.18,22.18,0,0,1-14,.86,15.51,15.51,0,0,1-10.24-9.16,24.67,24.67,0,0,1-1.15-6.88c-.67-10.22-.41-20.77,3.31-30.32,1.43-3.68,3.36-7.18,4.49-11,1.29-4.32,1.5-8.88,1.7-13.38l1.22-27.92a18.13,18.13,0,0,0-.42-6.05c-1.21-4-5-6.66-8.45-9.07-8.37-5.82-16.63-12.6-20.68-22-1.24-2.86-2.06-6-1.43-9.09,1.14-5.54,6.73-9.13,12.26-10.34A27.43,27.43,0,0,1,365,345.16c.09.39.16.78.23,1.17.55,3.15.54,6.36.86,9.54.68,6.75,2.82,13.26,4.16,19.9,3.3,16.38,1.59,33.31,4.86,49.68C377.86,439.14,388.16,448.07,381.81,463.05Z"/><circle class="cls-6" cx="286.57" cy="346.39" r="11.7"/><path class="cls-9" d="M780.32,358.91A62.67,62.67,0,1,0,843,421.58h0A62.66,62.66,0,0,0,780.32,358.91Zm31,46.77c0,.68.05,1.37.05,2.07,0,21.14-16.07,45.51-45.5,45.51A44.71,44.71,0,0,1,741.38,446a34.78,34.78,0,0,0,3.81.23,32.06,32.06,0,0,0,19.86-6.85,16,16,0,0,1-14.94-11.11,15.19,15.19,0,0,0,3,.3,16.12,16.12,0,0,0,4.21-.56,16,16,0,0,1-12.82-15.68v-.2a15.66,15.66,0,0,0,7.26,2,16,16,0,0,1-5-21.36,45.32,45.32,0,0,0,33,16.72A16,16,0,0,1,807,395a31.72,31.72,0,0,0,10.15-3.88,16.08,16.08,0,0,1-7,8.84,32.21,32.21,0,0,0,9.17-2.52A32.34,32.34,0,0,1,811.29,405.68Z"/><circle class="cls-9" cx="760.17" cy="184.62" r="11.13"/><path class="cls-9" d="M774.09,156.78H746.25a14,14,0,0,0-13.92,13.92v27.83a14,14,0,0,0,13.92,13.92h27.84A14,14,0,0,0,788,198.53V170.7A14,14,0,0,0,774.09,156.78Zm-13.92,44.54a16.71,16.71,0,1,1,16.7-16.7A16.7,16.7,0,0,1,760.17,201.32Zm18.1-30.62a4.18,4.18,0,1,1,4.17-4.18,4.18,4.18,0,0,1-4.17,4.18Z"/><path class="cls-9" d="M759.46,119.14a66.06,66.06,0,1,0,66.06,66.06h0A66.07,66.07,0,0,0,759.46,119.14Zm34.12,79.39A19.55,19.55,0,0,1,774.09,218H746.25a19.54,19.54,0,0,1-19.48-19.49V170.7a19.54,19.54,0,0,1,19.48-19.49h27.84a19.55,19.55,0,0,1,19.49,19.49Z"/><path class="cls-9" d="M491.49,0a65,65,0,1,0,65,65,65,65,0,0,0-65-65ZM512,39.33h-8.32C498,39.33,496.9,42,496.9,46v8.41h13.53l-1.77,13.2H496.9v35.83H481.82V67.59H471V54.39h10.82V44.63c0-11.69,8.1-18.05,18.55-18.05,5,0,10.37.38,11.62.54Z"/></g></g></svg>