<svg xmlns="http://www.w3.org/2000/svg" viewBox="0 0 1277.64 989"><defs><style>.cls-1,.cls-41{fill:#e5e6eb;}.cls-2{fill:#fefefe;}.cls-3{fill:#5b606f;}.cls-4{fill:#d3d5e2;}.cls-12,.cls-24,.cls-31,.cls-42,.cls-5{fill:#21d8f1;}.cls-37,.cls-5{stroke:#1b2d43;}.cls-13,.cls-21,.cls-24,.cls-28,.cls-30,.cls-36,.cls-37,.cls-38,.cls-41,.cls-5{stroke-miterlimit:10;}.cls-24,.cls-28,.cls-30,.cls-36,.cls-5{stroke-width:2.15px;}.cls-6{fill:#e2e4ec;}.cls-7{fill:#576e8e;}.cls-8{fill:#768fae;}.cls-9{fill:#415d7c;}.cls-10{fill:#5e7595;}.cls-11{fill:#536c8b;}.cls-13{fill:#1b2d43;stroke-width:6.44px;}.cls-13,.cls-21{stroke:#21d8f1;}.cls-14{fill:#c2c4d2;}.cls-15{fill:#e4e4ec;}.cls-16{fill:#c4c8d3;}.cls-17{fill:#758aa8;}.cls-18{fill:#7c8da9;}.cls-19{fill:#758cad;}.cls-20{fill:#33465d;}.cls-21,.cls-28,.cls-30,.cls-36,.cls-37,.cls-38{fill:none;}.cls-21{stroke-width:2.36px;}.cls-22{fill:#3f5a78;}.cls-23{fill:#576d8d;}.cls-24{stroke:#445d7a;}.cls-25{fill:#445d7a;}.cls-26{fill:#30455b;}.cls-27{fill:#758ead;}.cls-28{stroke:#d3d5e2;}.cls-29{fill:#7188a9;}.cls-30{stroke:#7188a9;}.cls-31{opacity:0.23;}.cls-32{fill:#5db8d5;}.cls-33{fill:#596e8c;}.cls-34{fill:#7891b1;}.cls-35{fill:#3e5a7a;}.cls-36{stroke:#e5e6eb;}.cls-37{stroke-width:4.29px;}.cls-38{stroke:#f0cd6f;stroke-width:1.66px;}.cls-39{fill:#f0cd6f;}.cls-40{fill:#fff;}.cls-41{stroke:#fff;stroke-width:1.61px;}.cls-42{opacity:0.44;}.cls-43{fill:#98ddfb;}.cls-44{fill:#bcf3ff;}</style></defs><g id="Layer_2" data-name="Layer 2"><g id="Layer_1-2" data-name="Layer 1"><path class="cls-1" d="M413.17,372.5a2.61,2.61,0,0,0,1.26-2.23V317.09a2.59,2.59,0,0,0-3.88-2.27l-61.61,36.36-.35,57.45Z"/><path class="cls-2" d="M350.09,273.06l60.11,35.69a4.35,4.35,0,0,1,0,7.51l-58,33.69a4.36,4.36,0,0,1-4.27.06l-62-33.82a4.35,4.35,0,0,1-.14-7.56l59.92-35.57A4.36,4.36,0,0,1,350.09,273.06Z"/><ellipse class="cls-3" cx="347.87" cy="281.83" rx="3.22" ry="2.79"/><ellipse class="cls-3" cx="403.24" cy="311.68" rx="3.22" ry="2.79"/><ellipse class="cls-3" cx="349.92" cy="342.29" rx="3.22" ry="2.79"/><ellipse class="cls-3" cx="294.12" cy="311.46" rx="3.22" ry="2.79"/><path class="cls-4" d="M348.58,350.28,283.6,313l.91,57a3.23,3.23,0,0,0,1.63,2.83l60.32,35.42a3.14,3.14,0,0,0,4.63-2.88l-.88-52.36a3.25,3.25,0,0,0-1.63-2.78"/><path class="cls-5" d="M295.81,338.35l41.89,25.81a3.08,3.08,0,0,1,1.47,2.62V381a3.09,3.09,0,0,1-4.59,2.69l-41.89-23.25a3.09,3.09,0,0,1-1.58-2.7V341A3.09,3.09,0,0,1,295.81,338.35Z"/><path class="cls-1" d="M413.17,299.84a2.61,2.61,0,0,0,1.26-2.23V244.43a2.59,2.59,0,0,0-3.88-2.27l-61.61,36.36L348.59,336Z"/><path class="cls-2" d="M350.09,200.4l60.11,35.69a4.34,4.34,0,0,1,0,7.5l-58,33.7a4.38,4.38,0,0,1-4.27.06l-62-33.82a4.35,4.35,0,0,1-.14-7.56l59.92-35.57A4.31,4.31,0,0,1,350.09,200.4Z"/><ellipse class="cls-3" cx="347.87" cy="209.17" rx="3.22" ry="2.79"/><ellipse class="cls-3" cx="403.24" cy="239.02" rx="3.22" ry="2.79"/><ellipse class="cls-3" cx="349.92" cy="269.62" rx="3.22" ry="2.79"/><ellipse class="cls-3" cx="294.12" cy="238.8" rx="3.22" ry="2.79"/><path class="cls-4" d="M348.58,277.62l-65-37.27.91,57a3.21,3.21,0,0,0,1.63,2.82l60.32,35.43a3.14,3.14,0,0,0,4.63-2.88l-.88-52.37a3.25,3.25,0,0,0-1.63-2.77"/><path class="cls-5" d="M295.81,265.69l41.89,25.8a3.11,3.11,0,0,1,1.47,2.63v14.23a3.09,3.09,0,0,1-4.59,2.7L292.69,287.8a3.09,3.09,0,0,1-1.58-2.7V268.32A3.08,3.08,0,0,1,295.81,265.69Z"/><path class="cls-1" d="M415.48,221.75a2.61,2.61,0,0,0,1.26-2.23V166.34a2.58,2.58,0,0,0-3.88-2.27l-61.61,36.36-.34,57.44Z"/><path class="cls-2" d="M352.4,122.31,412.51,158a4.35,4.35,0,0,1,0,7.5l-58,33.7a4.38,4.38,0,0,1-4.27.06l-62-33.82a4.35,4.35,0,0,1-.14-7.56L348,122.31A4.31,4.31,0,0,1,352.4,122.31Z"/><ellipse class="cls-3" cx="350.18" cy="131.08" rx="3.22" ry="2.79"/><ellipse class="cls-3" cx="405.55" cy="160.93" rx="3.22" ry="2.79"/><ellipse class="cls-3" cx="352.24" cy="191.53" rx="3.22" ry="2.79"/><ellipse class="cls-3" cx="296.44" cy="160.71" rx="3.22" ry="2.79"/><path class="cls-4" d="M350.89,199.53l-65-37.27.9,57a3.22,3.22,0,0,0,1.63,2.82l60.32,35.43a3.14,3.14,0,0,0,4.63-2.89l-.88-52.36a3.23,3.23,0,0,0-1.63-2.77"/><path class="cls-5" d="M298.12,187.6,340,213.4a3.1,3.1,0,0,1,1.47,2.63v14.23a3.08,3.08,0,0,1-4.58,2.7L295,209.71a3.1,3.1,0,0,1-1.59-2.7V190.23A3.09,3.09,0,0,1,298.12,187.6Z"/><path class="cls-1" d="M524.58,438.71a2.61,2.61,0,0,0,1.26-2.23V383.3A2.59,2.59,0,0,0,522,381l-61.61,36.36L460,474.84Z"/><path class="cls-2" d="M461.5,339.27,521.61,375a4.36,4.36,0,0,1,0,7.51l-58,33.69a4.36,4.36,0,0,1-4.27.06l-62-33.82a4.35,4.35,0,0,1-.13-7.56l59.91-35.57A4.36,4.36,0,0,1,461.5,339.27Z"/><ellipse class="cls-3" cx="459.28" cy="348.04" rx="3.22" ry="2.79"/><ellipse class="cls-3" cx="514.65" cy="377.89" rx="3.22" ry="2.79"/><ellipse class="cls-3" cx="461.34" cy="408.5" rx="3.22" ry="2.79"/><ellipse class="cls-3" cx="405.53" cy="377.67" rx="3.22" ry="2.79"/><path class="cls-4" d="M460,416.49l-65-37.27.9,57a3.23,3.23,0,0,0,1.63,2.83l60.32,35.42a3.13,3.13,0,0,0,4.63-2.88l-.88-52.36a3.25,3.25,0,0,0-1.63-2.78"/><path class="cls-5" d="M407.22,404.56l41.89,25.81a3.08,3.08,0,0,1,1.47,2.62v14.24a3.08,3.08,0,0,1-4.58,2.69l-41.89-23.25a3.1,3.1,0,0,1-1.59-2.7V407.19A3.09,3.09,0,0,1,407.22,404.56Z"/><path class="cls-1" d="M524.58,366.05a2.61,2.61,0,0,0,1.26-2.23V310.64a2.59,2.59,0,0,0-3.88-2.27l-61.61,36.36L460,402.17Z"/><path class="cls-2" d="M461.5,266.61l60.11,35.69a4.35,4.35,0,0,1,0,7.5l-58,33.7a4.38,4.38,0,0,1-4.27.06l-62-33.82a4.35,4.35,0,0,1-.13-7.56l59.91-35.57A4.31,4.31,0,0,1,461.5,266.61Z"/><ellipse class="cls-3" cx="459.28" cy="275.38" rx="3.22" ry="2.79"/><ellipse class="cls-3" cx="514.65" cy="305.23" rx="3.22" ry="2.79"/><ellipse class="cls-3" cx="461.34" cy="335.83" rx="3.22" ry="2.79"/><ellipse class="cls-3" cx="405.53" cy="305.01" rx="3.22" ry="2.79"/><path class="cls-4" d="M460,343.83l-65-37.27.9,57a3.21,3.21,0,0,0,1.63,2.82l60.32,35.43A3.13,3.13,0,0,0,462.5,399l-.88-52.37a3.25,3.25,0,0,0-1.63-2.77"/><path class="cls-5" d="M407.22,331.9l41.89,25.8a3.11,3.11,0,0,1,1.47,2.63v14.23a3.08,3.08,0,0,1-4.58,2.7L404.11,354a3.1,3.1,0,0,1-1.59-2.7V334.53A3.09,3.09,0,0,1,407.22,331.9Z"/><path class="cls-1" d="M526.9,288a2.6,2.6,0,0,0,1.25-2.24V232.55a2.58,2.58,0,0,0-3.88-2.27l-61.61,36.36-.34,57.44Z"/><path class="cls-2" d="M463.81,188.52l60.12,35.69a4.35,4.35,0,0,1,0,7.5l-58,33.7a4.38,4.38,0,0,1-4.27.06l-62-33.82a4.35,4.35,0,0,1-.14-7.56l59.91-35.57A4.31,4.31,0,0,1,463.81,188.52Z"/><ellipse class="cls-3" cx="461.59" cy="197.29" rx="3.22" ry="2.79"/><ellipse class="cls-3" cx="516.96" cy="227.14" rx="3.22" ry="2.79"/><ellipse class="cls-3" cx="463.65" cy="257.74" rx="3.22" ry="2.79"/><ellipse class="cls-3" cx="407.85" cy="226.92" rx="3.22" ry="2.79"/><path class="cls-4" d="M462.3,265.74l-65-37.27.9,57a3.24,3.24,0,0,0,1.63,2.82l60.32,35.43a3.14,3.14,0,0,0,4.63-2.89l-.88-52.36a3.23,3.23,0,0,0-1.63-2.77"/><path class="cls-5" d="M409.53,253.81l41.89,25.8a3.1,3.1,0,0,1,1.47,2.63v14.23a3.09,3.09,0,0,1-4.58,2.7l-41.89-23.25a3.1,3.1,0,0,1-1.59-2.7V256.44A3.08,3.08,0,0,1,409.53,253.81Z"/><path class="cls-6" d="M781.78,449s14.16,1.84,12.88,10.14L654.05,543.63s-12.52,6.2-31.15,1.81L481.1,464s-.66-12.76,10.36-15L633,534l21-5.89Z"/><polygon class="cls-7" points="790.71 195.78 640.42 290.23 652.93 533.97 781.54 457.06 790.71 195.78"/><path class="cls-8" d="M645.63,104.72l140.53,86a10.66,10.66,0,0,1-.09,18.1L650.41,290.09a9.94,9.94,0,0,1-10,.14L495.5,208.71a10.65,10.65,0,0,1-.33-18.23l140.07-85.76A9.91,9.91,0,0,1,645.63,104.72Z"/><path class="cls-9" d="M640.05,289.48,490.19,200.69l1,246.26a7.84,7.84,0,0,0,3.82,6.82l138,83.44c5.15-.9,13.93,1,13.83-5l-3-236.2a7.6,7.6,0,0,0-3.82-6.54"/><path class="cls-10" d="M633,537.21s10.15,3.76,21-4.4V287.91s-11.32,3.14-20.1-2.05Z"/><ellipse class="cls-11" cx="522.35" cy="196.32" rx="8.09" ry="6.03"/><ellipse class="cls-11" cx="642.04" cy="265.39" rx="8.09" ry="6.03"/><ellipse class="cls-11" cx="758.98" cy="197.41" rx="8.09" ry="6.03"/><ellipse class="cls-11" cx="639.3" cy="128.34" rx="8.09" ry="6.03"/><polygon class="cls-12" points="746.15 375.09 769.03 360.7 769.9 452.07 747.34 465.27 746.15 375.09"/><polygon class="cls-13" points="518.33 307.04 598.23 352.08 599.42 402.19 518.33 356.06 518.33 307.04"/><polygon class="cls-13" points="518.33 378.63 598.23 423.67 599.42 473.78 518.33 427.65 518.33 378.63"/><rect class="cls-12" x="568.16" y="261.76" width="6.6" height="32.11" rx="3.3" transform="translate(50.68 641.87) rotate(-60.88)"/><rect class="cls-12" x="552.26" y="265.87" width="6.6" height="32.11" rx="3.3" transform="translate(38.93 630.09) rotate(-60.88)"/><rect class="cls-12" x="542.03" y="252.67" width="4.44" height="21.59" rx="2.22" transform="translate(49.25 610.73) rotate(-60.88)"/><rect class="cls-12" x="758.81" y="253.35" width="7.84" height="6.44" rx="3.22" transform="translate(-3.12 503.67) rotate(-36.47)"/><rect class="cls-12" x="713.35" y="271.03" width="35.45" height="6.44" rx="3.22" transform="translate(-35.02 425.19) rotate(-31.71)"/><rect class="cls-12" x="735.33" y="270.14" width="32.88" height="6.44" rx="3.22" transform="translate(-33.84 424.03) rotate(-30.84)"/><polygon class="cls-2" points="794.66 459.12 794.66 498.3 655.13 579.32 654.05 543.63 794.66 459.12"/><path class="cls-6" d="M655.13,579.32l-1.08-35.69s-16.26,5.51-31.15.85v37.14S643.59,588.8,655.13,579.32Z"/><path class="cls-14" d="M481.64,464.77v31.06S472,495.28,534.08,532l89.36,50.44V546.27Z"/><polygon class="cls-15" points="919.83 443.03 921.47 403.15 812.15 472.18 813.5 503.58 919.83 443.03"/><polygon class="cls-16" points="685.9 406.44 686.18 428.85 802 504.5 802 473.48 685.9 406.44"/><path class="cls-4" d="M802,474.15s5.24,5.05,12.32-.67V503s-6.42,6-12.32,1.54Z"/><polygon class="cls-17" points="920.3 450.65 920.65 423.16 812.47 492.19 813.82 523.59 920.3 450.65"/><polygon class="cls-18" points="686.22 426.45 685.9 450.3 802.32 524.5 802.32 493.49 686.22 426.45"/><path class="cls-19" d="M801.93,493.32s4.93,2.88,12.39-2.31l-.57,30.31s-6.41,6-12.32,1.53Z"/><polygon class="cls-7" points="920.3 450.65 805.78 518.3 814.5 668.06 915.45 609.51 920.3 450.65"/><path class="cls-2" d="M807.9,333.93l110.31,65.5a8,8,0,0,1-.07,13.77L811.65,475a8,8,0,0,1-7.84.1L690.05,413.09a8,8,0,0,1-.25-13.88l109.94-65.28A8,8,0,0,1,807.9,333.93Z"/><path class="cls-9" d="M805.12,517.82,685.89,449.43l1.65,152.39a6,6,0,0,0,3,5.19l108.33,63.52c4-.69,10.94.73,10.86-3.8l-1.61-143.82a5.76,5.76,0,0,0-3-5"/><path class="cls-10" d="M798.87,670.53s7.09,3.75,15.63-2.47l-.6-154.56s-8.13,4.69-15,.74Z"/><path class="cls-20" d="M712.9,491.83l66.84,37.55a9.31,9.31,0,0,1,4.76,8.12v82.27a9.32,9.32,0,0,1-13.87,8.13l-66.85-37.39a9.34,9.34,0,0,1-4.77-8.14V500A9.32,9.32,0,0,1,712.9,491.83Z"/><rect class="cls-21" x="757.89" y="514.39" width="4.72" height="34.16" rx="2.36" transform="translate(-81.4 921.43) rotate(-59.82)"/><rect class="cls-21" x="718.04" y="492.11" width="4.72" height="34.16" rx="2.36" transform="matrix(0.5, -0.86, 0.86, 0.5, -81.95, 875.91)"/><rect class="cls-21" x="755.95" y="529.02" width="4.72" height="34.16" rx="2.36" transform="matrix(0.5, -0.86, 0.86, 0.5, -95.01, 927.03)"/><rect class="cls-21" x="716.1" y="506.74" width="4.72" height="34.16" rx="2.36" transform="translate(-95.56 881.51) rotate(-59.82)"/><rect class="cls-21" x="757.89" y="546.43" width="4.72" height="34.16" rx="2.36" transform="translate(-109.09 937.36) rotate(-59.82)"/><rect class="cls-21" x="718.04" y="524.15" width="4.72" height="34.16" rx="2.36" transform="translate(-109.65 891.84) rotate(-59.82)"/><rect class="cls-21" x="755.95" y="561.06" width="4.72" height="34.16" rx="2.36" transform="translate(-122.7 942.96) rotate(-59.82)"/><rect class="cls-21" x="716.1" y="538.78" width="4.72" height="34.16" rx="2.36" transform="translate(-123.26 897.44) rotate(-59.82)"/><rect class="cls-21" x="757.89" y="577.81" width="4.72" height="34.16" rx="2.36" transform="translate(-136.22 952.97) rotate(-59.82)"/><rect class="cls-21" x="718.04" y="555.53" width="4.72" height="34.16" rx="2.36" transform="translate(-136.77 907.45) rotate(-59.82)"/><rect class="cls-21" x="755.95" y="592.44" width="4.72" height="34.16" rx="2.36" transform="translate(-149.82 958.56) rotate(-59.82)"/><rect class="cls-21" x="716.1" y="570.16" width="4.72" height="34.16" rx="2.36" transform="translate(-150.38 913.04) rotate(-59.82)"/><ellipse class="cls-12" cx="831.18" cy="515.26" rx="2.91" ry="3.3"/><ellipse class="cls-12" cx="845.9" cy="506.25" rx="2.91" ry="3.3"/><ellipse class="cls-12" cx="878.87" cy="487.02" rx="2.91" ry="3.3"/><ellipse class="cls-12" cx="894.94" cy="477.72" rx="2.91" ry="3.3"/><ellipse class="cls-12" cx="909.37" cy="468.85" rx="2.91" ry="3.3"/><ellipse class="cls-12" cx="863.04" cy="496.41" rx="2.91" ry="3.3"/><ellipse class="cls-12" cx="830.23" cy="525.19" rx="2.91" ry="3.3"/><ellipse class="cls-12" cx="844.96" cy="516.18" rx="2.91" ry="3.3"/><ellipse class="cls-12" cx="877.93" cy="496.95" rx="2.91" ry="3.3"/><ellipse class="cls-12" cx="893.99" cy="487.65" rx="2.91" ry="3.3"/><ellipse class="cls-12" cx="908.43" cy="478.77" rx="2.91" ry="3.3"/><ellipse class="cls-12" cx="862.1" cy="506.34" rx="2.91" ry="3.3"/><ellipse class="cls-12" cx="831.18" cy="590.85" rx="2.91" ry="3.3"/><ellipse class="cls-12" cx="845.9" cy="581.85" rx="2.91" ry="3.3"/><ellipse class="cls-12" cx="878.87" cy="562.61" rx="2.91" ry="3.3"/><ellipse class="cls-12" cx="894.94" cy="553.32" rx="2.91" ry="3.3"/><ellipse class="cls-12" cx="909.37" cy="544.44" rx="2.91" ry="3.3"/><ellipse class="cls-12" cx="863.04" cy="572" rx="2.91" ry="3.3"/><ellipse class="cls-12" cx="830.23" cy="600.78" rx="2.91" ry="3.3"/><ellipse class="cls-12" cx="844.96" cy="591.77" rx="2.91" ry="3.3"/><ellipse class="cls-12" cx="877.93" cy="572.54" rx="2.91" ry="3.3"/><ellipse class="cls-12" cx="893.99" cy="563.24" rx="2.91" ry="3.3"/><ellipse class="cls-12" cx="908.43" cy="554.37" rx="2.91" ry="3.3"/><ellipse class="cls-12" cx="862.1" cy="581.93" rx="2.91" ry="3.3"/><rect class="cls-3" x="778.11" y="412.86" width="102.77" height="8.59" rx="4.29" transform="translate(-97.24 474) rotate(-30.21)"/><rect class="cls-3" x="794.83" y="423.27" width="102.77" height="8.59" rx="4.29" transform="matrix(0.86, -0.5, 0.5, 0.86, -100.21, 483.83)"/><rect class="cls-3" x="713.97" y="374.45" width="102.77" height="8.59" rx="4.29" transform="translate(-86.63 436.51) rotate(-30.21)"/><rect class="cls-3" x="730.69" y="384.86" width="102.77" height="8.59" rx="4.29" transform="translate(-89.6 446.34) rotate(-30.21)"/><polygon class="cls-15" points="1098.12 548.7 1099.76 508.82 990.44 577.84 991.79 609.25 1098.12 548.7"/><polygon class="cls-16" points="864.18 512.11 864.47 534.51 980.29 610.16 980.29 579.15 864.18 512.11"/><path class="cls-4" d="M980.29,579.82s5.24,5,12.32-.67v29.48s-6.42,6-12.32,1.53Z"/><polygon class="cls-17" points="1098.59 556.31 1098.93 528.83 990.76 597.85 992.11 629.26 1098.59 556.31"/><polygon class="cls-18" points="864.5 532.12 864.18 555.96 980.6 630.17 980.6 599.16 864.5 532.12"/><path class="cls-19" d="M980.22,599s4.93,2.88,12.39-2.32L992,627s-6.42,6-12.32,1.53Z"/><polygon class="cls-7" points="1098.59 556.31 984.07 623.96 992.78 773.73 1093.73 715.18 1098.59 556.31"/><path class="cls-2" d="M986.18,439.6l110.32,65.49a8,8,0,0,1-.07,13.78L989.94,580.7a8,8,0,0,1-7.84.11L868.34,518.75a8,8,0,0,1-.25-13.88L978,439.6A7.94,7.94,0,0,1,986.18,439.6Z"/><path class="cls-9" d="M983.41,623.49l-119.23-68.4,1.65,152.4a6,6,0,0,0,3,5.19L977.16,776.2c4-.69,10.93.73,10.86-3.81L986.4,628.58a5.77,5.77,0,0,0-3-5"/><path class="cls-10" d="M977.16,776.2s7.09,3.74,15.62-2.47l-.59-154.56s-8.13,4.69-15,.74Z"/><path class="cls-20" d="M891.19,597.49,958,635a9.32,9.32,0,0,1,4.76,8.13v82.26a9.33,9.33,0,0,1-13.88,8.14l-66.84-37.4A9.31,9.31,0,0,1,877.3,688V605.62A9.32,9.32,0,0,1,891.19,597.49Z"/><rect class="cls-21" x="936.17" y="620.06" width="4.72" height="34.16" rx="2.36" transform="translate(-84.09 1128.09) rotate(-59.82)"/><rect class="cls-21" x="896.33" y="597.78" width="4.72" height="34.16" rx="2.36" transform="translate(-84.64 1082.57) rotate(-59.82)"/><rect class="cls-21" x="934.24" y="634.69" width="4.72" height="34.16" rx="2.36" transform="translate(-97.7 1133.69) rotate(-59.82)"/><rect class="cls-21" x="894.39" y="612.41" width="4.72" height="34.16" rx="2.36" transform="translate(-98.25 1088.17) rotate(-59.82)"/><rect class="cls-21" x="936.17" y="652.1" width="4.72" height="34.16" rx="2.36" transform="translate(-111.78 1144.02) rotate(-59.82)"/><rect class="cls-21" x="896.33" y="629.82" width="4.72" height="34.16" rx="2.36" transform="matrix(0.5, -0.86, 0.86, 0.5, -112.34, 1098.5)"/><rect class="cls-21" x="934.24" y="666.72" width="4.72" height="34.16" rx="2.36" transform="translate(-125.39 1149.62) rotate(-59.82)"/><rect class="cls-21" x="894.39" y="644.45" width="4.72" height="34.16" rx="2.36" transform="translate(-125.95 1104.1) rotate(-59.82)"/><rect class="cls-21" x="936.17" y="683.47" width="4.72" height="34.16" rx="2.36" transform="translate(-138.91 1159.62) rotate(-59.82)"/><rect class="cls-21" x="896.33" y="661.2" width="4.72" height="34.16" rx="2.36" transform="translate(-139.46 1114.1) rotate(-59.82)"/><rect class="cls-21" x="934.24" y="698.1" width="4.72" height="34.16" rx="2.36" transform="translate(-152.52 1165.22) rotate(-59.82)"/><rect class="cls-21" x="894.39" y="675.83" width="4.72" height="34.16" rx="2.36" transform="matrix(0.5, -0.86, 0.86, 0.5, -153.07, 1119.7)"/><ellipse class="cls-12" cx="1009.47" cy="620.93" rx="2.91" ry="3.3"/><ellipse class="cls-12" cx="1024.19" cy="611.92" rx="2.91" ry="3.3"/><ellipse class="cls-12" cx="1057.16" cy="592.69" rx="2.91" ry="3.3"/><ellipse class="cls-12" cx="1073.22" cy="583.39" rx="2.91" ry="3.3"/><ellipse class="cls-12" cx="1087.66" cy="574.51" rx="2.91" ry="3.3"/><ellipse class="cls-12" cx="1041.33" cy="602.08" rx="2.91" ry="3.3"/><ellipse class="cls-12" cx="1008.52" cy="630.86" rx="2.91" ry="3.3"/><ellipse class="cls-12" cx="1023.25" cy="621.85" rx="2.91" ry="3.3"/><ellipse class="cls-12" cx="1056.21" cy="602.62" rx="2.91" ry="3.3"/><ellipse class="cls-12" cx="1072.28" cy="593.32" rx="2.91" ry="3.3"/><ellipse class="cls-12" cx="1086.71" cy="584.44" rx="2.91" ry="3.3"/><ellipse class="cls-12" cx="1040.39" cy="612.01" rx="2.91" ry="3.3"/><ellipse class="cls-12" cx="1009.47" cy="696.52" rx="2.91" ry="3.3"/><ellipse class="cls-12" cx="1024.19" cy="687.51" rx="2.91" ry="3.3"/><ellipse class="cls-12" cx="1057.16" cy="668.28" rx="2.91" ry="3.3"/><ellipse class="cls-12" cx="1073.22" cy="658.98" rx="2.91" ry="3.3"/><ellipse class="cls-12" cx="1087.66" cy="650.1" rx="2.91" ry="3.3"/><ellipse class="cls-12" cx="1041.33" cy="677.67" rx="2.91" ry="3.3"/><ellipse class="cls-12" cx="1008.52" cy="706.45" rx="2.91" ry="3.3"/><ellipse class="cls-12" cx="1023.25" cy="697.44" rx="2.91" ry="3.3"/><ellipse class="cls-12" cx="1056.21" cy="678.21" rx="2.91" ry="3.3"/><ellipse class="cls-12" cx="1072.28" cy="668.91" rx="2.91" ry="3.3"/><ellipse class="cls-12" cx="1086.71" cy="660.03" rx="2.91" ry="3.3"/><ellipse class="cls-12" cx="1040.39" cy="687.6" rx="2.91" ry="3.3"/><rect class="cls-3" x="956.4" y="518.52" width="102.77" height="8.59" rx="4.29" transform="translate(-126.2 578.06) rotate(-30.21)"/><rect class="cls-3" x="973.12" y="528.94" width="102.77" height="8.59" rx="4.29" transform="translate(-129.17 587.88) rotate(-30.21)"/><rect class="cls-3" x="892.26" y="480.12" width="102.77" height="8.59" rx="4.29" transform="translate(-115.58 540.57) rotate(-30.21)"/><rect class="cls-3" x="908.98" y="490.53" width="102.77" height="8.59" rx="4.29" transform="translate(-118.55 550.39) rotate(-30.21)"/><polygon class="cls-22" points="848.29 916.37 848.29 791.02 753.27 735.47 753.27 860.09 848.29 916.37"/><polygon class="cls-23" points="932.72 868.49 848.29 916.37 848.29 791.02 932.72 745.33 932.72 868.49"/><polygon class="cls-24" points="863.64 830.85 907.5 807.46 907.5 775.3 863.64 797.6 863.64 830.85"/><polygon class="cls-25" points="862.52 848.64 862.52 831.47 907.5 807.46 921.39 812.94 862.52 848.64"/><polygon class="cls-26" points="921.39 764.34 921.39 812.94 907.5 807.46 907.5 775.3 921.39 764.34"/><polygon class="cls-27" points="835.5 686.5 753.27 735.47 848.29 791.02 932.72 745.33 835.5 686.5"/><path class="cls-28" d="M778.22,731.71l56.33-33.11a2.62,2.62,0,0,1,2.64,0l59.75,34.57a2.63,2.63,0,0,1,0,4.56L839.43,770a6.91,6.91,0,0,1-7-.15L778.16,736.2A2.63,2.63,0,0,1,778.22,731.71Z"/><rect class="cls-29" x="792.78" y="751.75" width="3.22" height="69.04" transform="translate(-279.2 1097.2) rotate(-60.86)"/><rect class="cls-29" x="792.78" y="761.61" width="3.22" height="69.04" transform="translate(-287.82 1102.26) rotate(-60.86)"/><rect class="cls-29" x="790.55" y="772.94" width="3.22" height="69.04" transform="translate(-298.85 1106.13) rotate(-60.86)"/><rect class="cls-29" x="790.55" y="781.71" width="3.22" height="69.04" transform="translate(-306.51 1110.62) rotate(-60.86)"/><polygon class="cls-30" points="764.24 838.25 822.31 869.23 822.31 888.14 764.24 856.62 764.24 838.25"/><rect class="cls-29" x="857.54" y="845.93" width="67.22" height="3.22" transform="translate(-297.9 533.49) rotate(-28.77)"/><rect class="cls-29" x="858.9" y="856.17" width="67.22" height="3.22" transform="translate(-302.66 535.41) rotate(-28.77)"/><rect class="cls-29" x="858.31" y="866.96" width="67.22" height="3.22" transform="translate(-307.93 536.46) rotate(-28.77)"/><rect class="cls-29" x="858.9" y="877.72" width="67.22" height="3.22" transform="translate(-313.03 538.07) rotate(-28.77)"/><polygon class="cls-25" points="862.49 793.25 921.42 764.7 906.78 776.26 862.49 797.14 862.49 793.25"/><path class="cls-31" d="M793.4,834.64v67.42l-51.77,28.79-51.76-24.22v-73s38.92,21.24,46,25.36,12.43,2.1,12.43,2.1Z"/><path class="cls-32" d="M789.78,900.69l-43.46-25.28a8.32,8.32,0,0,0-8.29,0l-47,26.52,50.85,28.37,50.34-28.62Z"/><polygon class="cls-33" points="793.39 906.63 747.89 933.67 747.33 988.02 793.39 960.9 793.39 906.63"/><path class="cls-34" d="M793.39,899.8v6.83l-45.49,27-6.4,5.84-23.94-9.14-27.68-21V900.6l46.87,25.58s4.89,2.81,11.15-1.1C753.62,921.52,793.39,899.8,793.39,899.8Z"/><path class="cls-34" d="M735.92,859c-7.13-4.12-46-25.36-46-25.36v-7.92l46.87,25.57s4.89,2.81,11.16-1.09c5.71-3.57,45.5-25.3,45.5-25.3v9.71l-45,26.49s-2.21,1.12-6.56.17C741.79,861.3,737.54,860.29,735.92,859Z"/><polygon class="cls-35" points="735.1 933.49 735.38 987.58 689.88 960.9 689.88 909.37 735.1 933.49"/><path class="cls-10" d="M747.9,933.68,747.32,988a15.34,15.34,0,0,1-11.94-.43l0,0-.23-54.06S742.66,936.77,747.9,933.68Z"/><path class="cls-36" d="M743.16,892.86l14.51,8.92a3,3,0,0,1,0,5l-14.66,9.36a3,3,0,0,1-3.12,0l-15.14-9.12a3,3,0,0,1,0-5.07l15.3-9.16A2.93,2.93,0,0,1,743.16,892.86Z"/><path class="cls-2" d="M742.83,796.08l49,26.82a3.29,3.29,0,0,1,0,5.59l-45.34,26.57a3.06,3.06,0,0,1-3.08,0L690.7,827.76a3.29,3.29,0,0,1-.1-5.63l49-26A3.06,3.06,0,0,1,742.83,796.08Z"/><path class="cls-37" d="M743.58,813.28l14.51,8.93a3,3,0,0,1,0,5l-14.67,9.36a3,3,0,0,1-3.11,0l-15.14-9.13a3,3,0,0,1,0-5.06l15.3-9.16A3,3,0,0,1,743.58,813.28Z"/><polygon class="cls-38" points="699.25 937.95 719.82 949.55 720.13 962.45 699.25 950.57 699.25 937.95"/><rect class="cls-39" x="712.08" y="926.29" width="1.7" height="8.27" rx="0.85" transform="translate(-446.83 1100.5) rotate(-60.88)"/><rect class="cls-39" x="707.99" y="927.35" width="1.7" height="8.27" rx="0.85" transform="translate(-449.85 1097.47) rotate(-60.88)"/><rect class="cls-39" x="705.35" y="923.95" width="1.14" height="5.56" rx="0.57" transform="translate(-447.19 1092.49) rotate(-60.88)"/><polygon class="cls-39" points="783.43 934.68 791.06 929.88 791.35 960.36 783.83 964.76 783.43 934.68"/><rect class="cls-39" x="787.33" y="912.82" width="3.42" height="2.81" rx="1.41" transform="translate(-388.92 648.14) rotate(-36.47)"/><rect class="cls-39" x="767.47" y="920.54" width="15.48" height="2.81" rx="1.41" transform="translate(-368.86 545.08) rotate(-31.71)"/><rect class="cls-39" x="777.07" y="920.15" width="14.36" height="2.81" rx="1.41" transform="translate(-361.53 532.33) rotate(-30.84)"/><polygon class="cls-15" points="1275.35 659.99 1276.99 620.11 1167.67 689.13 1169.02 720.54 1275.35 659.99"/><polygon class="cls-16" points="1041.42 623.4 1041.7 645.8 1157.52 721.45 1157.52 690.44 1041.42 623.4"/><path class="cls-4" d="M1157.52,691.11s5.24,5,12.32-.67v29.48s-6.42,6-12.32,1.53Z"/><polygon class="cls-17" points="1275.82 667.6 1276.17 640.12 1167.99 709.14 1169.34 740.55 1275.82 667.6"/><polygon class="cls-18" points="1041.73 643.4 1041.42 667.25 1157.84 741.46 1157.84 710.45 1041.73 643.4"/><path class="cls-19" d="M1157.45,710.28s4.93,2.88,12.39-2.32l-.57,30.31s-6.42,6-12.32,1.53Z"/><polygon class="cls-7" points="1275.82 667.6 1161.3 735.25 1170.01 885.02 1270.96 826.47 1275.82 667.6"/><path class="cls-2" d="M1163.42,550.88l110.31,65.5a8,8,0,0,1-.07,13.78L1167.17,692a8,8,0,0,1-7.84.1L1045.57,630a8,8,0,0,1-.25-13.88l109.94-65.28A8,8,0,0,1,1163.42,550.88Z"/><path class="cls-9" d="M1160.64,734.78l-119.23-68.4,1.65,152.39a5.92,5.92,0,0,0,3,5.19l108.33,63.52c4-.69,10.93.73,10.86-3.8l-1.61-143.82a5.78,5.78,0,0,0-3-5"/><path class="cls-10" d="M1154.39,887.48s7.09,3.75,15.62-2.46l-.59-154.56s-8.13,4.69-15,.74Z"/><path class="cls-20" d="M1068.42,708.78l66.84,37.55a9.32,9.32,0,0,1,4.76,8.13v82.26a9.33,9.33,0,0,1-13.88,8.14l-66.84-37.4a9.34,9.34,0,0,1-4.77-8.14V716.91A9.33,9.33,0,0,1,1068.42,708.78Z"/><rect class="cls-21" x="1113.41" y="731.35" width="4.72" height="34.16" rx="2.36" transform="translate(-92.16 1336.63) rotate(-59.82)"/><rect class="cls-21" x="1073.56" y="709.07" width="4.72" height="34.16" rx="2.36" transform="translate(-92.72 1291.11) rotate(-59.82)"/><rect class="cls-21" x="1111.47" y="745.97" width="4.72" height="34.16" rx="2.36" transform="translate(-105.77 1342.22) rotate(-59.82)"/><rect class="cls-21" x="1071.62" y="723.7" width="4.72" height="34.16" rx="2.36" transform="translate(-106.33 1296.7) rotate(-59.82)"/><rect class="cls-21" x="1113.41" y="763.38" width="4.72" height="34.16" rx="2.36" transform="translate(-119.86 1352.56) rotate(-59.82)"/><rect class="cls-21" x="1073.56" y="741.11" width="4.72" height="34.16" rx="2.36" transform="translate(-120.41 1307.04) rotate(-59.82)"/><rect class="cls-21" x="1111.47" y="778.01" width="4.72" height="34.16" rx="2.36" transform="translate(-133.47 1358.15) rotate(-59.82)"/><rect class="cls-21" x="1071.62" y="755.74" width="4.72" height="34.16" rx="2.36" transform="translate(-134.02 1312.63) rotate(-59.82)"/><rect class="cls-21" x="1113.41" y="794.76" width="4.72" height="34.16" rx="2.36" transform="translate(-146.98 1368.16) rotate(-59.82)"/><rect class="cls-21" x="1073.56" y="772.49" width="4.72" height="34.16" rx="2.36" transform="translate(-147.54 1322.64) rotate(-59.82)"/><rect class="cls-21" x="1111.47" y="809.39" width="4.72" height="34.16" rx="2.36" transform="translate(-160.59 1373.76) rotate(-59.82)"/><rect class="cls-21" x="1071.62" y="787.11" width="4.72" height="34.16" rx="2.36" transform="translate(-161.15 1328.24) rotate(-59.82)"/><ellipse class="cls-12" cx="1186.7" cy="732.22" rx="2.91" ry="3.3"/><ellipse class="cls-12" cx="1201.42" cy="723.21" rx="2.91" ry="3.3"/><ellipse class="cls-12" cx="1234.39" cy="703.97" rx="2.91" ry="3.3"/><ellipse class="cls-12" cx="1250.46" cy="694.68" rx="2.91" ry="3.3"/><ellipse class="cls-12" cx="1264.89" cy="685.8" rx="2.91" ry="3.3"/><ellipse class="cls-12" cx="1218.56" cy="713.37" rx="2.91" ry="3.3"/><ellipse class="cls-12" cx="1185.75" cy="742.15" rx="2.91" ry="3.3"/><ellipse class="cls-12" cx="1200.48" cy="733.14" rx="2.91" ry="3.3"/><ellipse class="cls-12" cx="1233.45" cy="713.9" rx="2.91" ry="3.3"/><ellipse class="cls-12" cx="1249.51" cy="704.61" rx="2.91" ry="3.3"/><ellipse class="cls-12" cx="1263.95" cy="695.73" rx="2.91" ry="3.3"/><ellipse class="cls-12" cx="1217.62" cy="723.3" rx="2.91" ry="3.3"/><ellipse class="cls-12" cx="1186.7" cy="807.81" rx="2.91" ry="3.3"/><ellipse class="cls-12" cx="1201.42" cy="798.8" rx="2.91" ry="3.3"/><ellipse class="cls-12" cx="1234.39" cy="779.57" rx="2.91" ry="3.3"/><ellipse class="cls-12" cx="1250.46" cy="770.27" rx="2.91" ry="3.3"/><ellipse class="cls-12" cx="1264.89" cy="761.39" rx="2.91" ry="3.3"/><ellipse class="cls-12" cx="1218.56" cy="788.96" rx="2.91" ry="3.3"/><ellipse class="cls-12" cx="1185.75" cy="817.74" rx="2.91" ry="3.3"/><ellipse class="cls-12" cx="1200.48" cy="808.73" rx="2.91" ry="3.3"/><ellipse class="cls-12" cx="1233.45" cy="789.49" rx="2.91" ry="3.3"/><ellipse class="cls-12" cx="1249.51" cy="780.2" rx="2.91" ry="3.3"/><ellipse class="cls-12" cx="1263.95" cy="771.32" rx="2.91" ry="3.3"/><ellipse class="cls-12" cx="1217.62" cy="798.89" rx="2.91" ry="3.3"/><rect class="cls-3" x="1133.63" y="629.81" width="102.77" height="8.59" rx="4.29" transform="translate(-158.12 682.34) rotate(-30.21)"/><rect class="cls-3" x="1150.35" y="640.23" width="102.77" height="8.59" rx="4.29" transform="translate(-161.09 692.17) rotate(-30.21)"/><rect class="cls-3" x="1069.49" y="591.4" width="102.77" height="8.59" rx="4.29" transform="translate(-147.51 644.85) rotate(-30.21)"/><rect class="cls-3" x="1086.21" y="601.82" width="102.77" height="8.59" rx="4.29" transform="matrix(0.86, -0.5, 0.5, 0.86, -150.48, 654.68)"/><polygon class="cls-22" points="227.06 622.69 227.06 497.34 132.04 441.79 132.04 566.41 227.06 622.69"/><polygon class="cls-23" points="311.48 574.82 227.06 622.69 227.06 497.34 311.48 451.66 311.48 574.82"/><polygon class="cls-24" points="242.41 537.17 286.26 513.78 286.26 481.63 242.41 503.92 242.41 537.17"/><polygon class="cls-25" points="241.29 554.97 241.29 537.79 286.26 513.78 300.15 519.27 241.29 554.97"/><polygon class="cls-26" points="300.15 470.66 300.15 519.27 286.26 513.78 286.26 481.63 300.15 470.66"/><polygon class="cls-27" points="214.27 392.82 132.04 441.79 227.06 497.34 311.48 451.66 214.27 392.82"/><path class="cls-28" d="M159.18,436.74l53.36-31.36a4.16,4.16,0,0,1,4.19,0l56.63,32.77a4.17,4.17,0,0,1,0,7.24l-56.54,31.76a4.18,4.18,0,0,1-4.24-.09l-53.45-33.17A4.17,4.17,0,0,1,159.18,436.74Z"/><rect class="cls-29" x="171.54" y="458.07" width="3.22" height="69.04" transform="translate(-341.4 403.94) rotate(-60.86)"/><rect class="cls-29" x="171.54" y="467.94" width="3.22" height="69.04" transform="translate(-350.02 409) rotate(-60.86)"/><rect class="cls-29" x="169.32" y="479.26" width="3.22" height="69.04" transform="translate(-361.06 412.87) rotate(-60.86)"/><rect class="cls-29" x="169.32" y="488.03" width="3.22" height="69.04" transform="translate(-368.71 417.37) rotate(-60.86)"/><polygon class="cls-30" points="143 544.58 201.08 575.55 201.08 594.46 143 562.94 143 544.58"/><rect class="cls-29" x="236.3" y="552.26" width="67.22" height="3.22" transform="translate(-233.24 198.26) rotate(-28.77)"/><rect class="cls-29" x="237.67" y="562.49" width="67.22" height="3.22" transform="translate(-238 200.18) rotate(-28.77)"/><rect class="cls-29" x="237.07" y="573.29" width="67.22" height="3.22" transform="translate(-243.27 201.23) rotate(-28.77)"/><rect class="cls-29" x="237.67" y="584.04" width="67.22" height="3.22" transform="translate(-248.37 202.84) rotate(-28.77)"/><polygon class="cls-25" points="241.25 499.58 300.18 471.03 285.55 482.58 241.25 503.46 241.25 499.58"/><path class="cls-31" d="M167.28,539.81v67.42L115.51,636,63.74,611.8V538.85s38.93,21.23,46.06,25.35,12.43,2.1,12.43,2.1Z"/><path class="cls-32" d="M163.66,605.86,120.2,580.58a8.34,8.34,0,0,0-8.29-.05l-47,26.52,50.85,28.37,50.34-28.62Z"/><polygon class="cls-33" points="167.27 611.8 121.77 638.85 121.21 693.19 167.27 666.07 167.27 611.8"/><path class="cls-34" d="M167.27,605v6.83l-45.49,27.06-6.4,5.83-23.94-9.13-27.68-21v-8.77l46.87,25.58s4.88,2.81,11.15-1.09C127.49,626.7,167.27,605,167.27,605Z"/><path class="cls-34" d="M109.8,564.2c-7.13-4.12-46.06-25.35-46.06-25.35v-7.93l46.88,25.57s4.89,2.82,11.16-1.09c5.71-3.56,45.5-25.29,45.5-25.29v9.7l-45,26.5s-2.22,1.11-6.56.16C115.67,566.47,111.42,565.46,109.8,564.2Z"/><polygon class="cls-35" points="108.98 638.66 109.25 692.75 63.76 666.07 63.76 614.54 108.98 638.66"/><path class="cls-10" d="M121.78,638.86l-.58,54.32a15.34,15.34,0,0,1-11.94-.43l0,0L109,638.66S116.54,642,121.78,638.86Z"/><path class="cls-36" d="M117,598,131.55,607a3,3,0,0,1,0,5l-14.66,9.36a3,3,0,0,1-3.12,0l-15.14-9.12a3,3,0,0,1,0-5.07L114,598A3,3,0,0,1,117,598Z"/><path class="cls-2" d="M116.7,501.25l49,26.82a3.29,3.29,0,0,1,0,5.59l-45.34,26.57a3,3,0,0,1-3.08,0L64.57,532.93a3.29,3.29,0,0,1-.09-5.63l49-26A3,3,0,0,1,116.7,501.25Z"/><path class="cls-37" d="M117.46,518.46,132,527.38a3,3,0,0,1,0,5l-14.67,9.36a3,3,0,0,1-3.11,0l-15.15-9.12a3,3,0,0,1,0-5.07l15.3-9.16A3,3,0,0,1,117.46,518.46Z"/><polygon class="cls-38" points="73.13 643.12 93.7 654.72 94 667.62 73.13 655.75 73.13 643.12"/><rect class="cls-39" x="85.96" y="631.47" width="1.7" height="8.27" rx="0.85" transform="translate(-510.71 402.15) rotate(-60.88)"/><rect class="cls-39" x="81.86" y="632.52" width="1.7" height="8.27" rx="0.85" transform="translate(-513.73 399.12) rotate(-60.88)"/><rect class="cls-39" x="79.23" y="629.12" width="1.14" height="5.56" rx="0.57" transform="translate(-511.07 394.13) rotate(-60.88)"/><polygon class="cls-39" points="157.31 639.86 164.94 635.06 165.23 665.53 157.7 669.93 157.31 639.86"/><rect class="cls-39" x="161.21" y="617.99" width="3.42" height="2.81" rx="1.41" transform="translate(-336.3 218.18) rotate(-36.47)"/><rect class="cls-39" x="141.35" y="625.71" width="15.48" height="2.81" rx="1.41" transform="translate(-307.36 171.97) rotate(-31.71)"/><rect class="cls-39" x="150.95" y="625.32" width="14.36" height="2.81" rx="1.41" transform="translate(-298.92 169.68) rotate(-30.84)"/><path class="cls-4" d="M646.08,811.51l-141,83a15.44,15.44,0,0,1-15.64,0L271.14,766.75c-3.28-1.92-4-12.37-.69-14.27l141.66-75.56a8.84,8.84,0,0,1,8.87,0L647.07,802.73C648.54,803.58,647.54,810.65,646.08,811.51Z"/><path class="cls-40" d="M646.08,805.29l-141,83a15.44,15.44,0,0,1-15.64,0L271.14,760.53a5,5,0,0,1,0-8.56l140.94-81.26a8.87,8.87,0,0,1,8.87,0L646.07,801.47A2.21,2.21,0,0,1,646.08,805.29Z"/><path d="M391.83,775.77l71.09,41.67a2.8,2.8,0,0,1,0,4.82l-26.5,16.14a6.16,6.16,0,0,1-6.25.08l-72.9-41.7a1.73,1.73,0,0,1-.05-3l29-18A5.36,5.36,0,0,1,391.83,775.77Z"/><path d="M420,687.48,611,798.65a6.31,6.31,0,0,1,.09,10.84l-59.52,36.23a13.76,13.76,0,0,1-14,.19l-195-111.25a3.89,3.89,0,0,1-.11-6.69l65.2-40.34A12.05,12.05,0,0,1,420,687.48Z"/><path class="cls-2" d="M419.91,667.81,645.93,798a5.08,5.08,0,0,0,7.62-4.31l3.14-165.94a5.08,5.08,0,0,0-2.59-4.53L426.41,495.46a5.08,5.08,0,0,0-7.57,4.39l-1.48,163.5A5.11,5.11,0,0,0,419.91,667.81Z"/><path class="cls-4" d="M418.45,671.09l226,130.16a5.08,5.08,0,0,0,7.62-4.31L655.23,631a5.08,5.08,0,0,0-2.59-4.53L425,498.75a5.08,5.08,0,0,0-7.57,4.39l-1.48,163.5A5.09,5.09,0,0,0,418.45,671.09Z"/><polygon points="422.3 663.49 643.5 791.68 646.38 639.74 423.67 511.92 422.3 663.49"/><circle class="cls-41" cx="535.57" cy="567.97" r="3.29"/><path class="cls-42" d="M710.28,292.33l33.32,40.4a3.77,3.77,0,0,1,.5,4l-23.8,49.63a3.81,3.81,0,0,1-3,2.13l-51.4,5.07a3.78,3.78,0,0,1-3.32-1.38L629.3,351a3.79,3.79,0,0,1-.49-4l21.89-47.31a3.79,3.79,0,0,1,3-2.16L706.9,291A3.79,3.79,0,0,1,710.28,292.33Z"/><path class="cls-40" d="M700.54,310.21l19.81,27.94a.5.5,0,0,1-.36.78l-33.94,3.36a.5.5,0,0,1-.46-.22L667.2,314.13a.5.5,0,0,1,.36-.77L700.08,310A.5.5,0,0,1,700.54,310.21Z"/><path class="cls-43" d="M671.89,373.9l13.58-31.63a.33.33,0,0,1,.28-.21L720,338.67a.34.34,0,0,1,.35.48l-14.29,32a.34.34,0,0,1-.29.2l-33.58,3A.33.33,0,0,1,671.89,373.9Z"/><path class="cls-44" d="M651.72,346.16l14.59-32a.59.59,0,0,1,1-.08l18.25,27.74a.57.57,0,0,1,0,.55l-13.36,31.12a.58.58,0,0,1-1,.11l-19.49-26.86A.6.6,0,0,1,651.72,346.16Z"/><path class="cls-42" d="M931.64,598l26.44,32a3,3,0,0,1,.39,3.21l-18.89,39.37a3,3,0,0,1-2.41,1.69l-40.78,4a3,3,0,0,1-2.62-1.1l-26.38-32.66a3,3,0,0,1-.38-3.14l17.36-37.54a3,3,0,0,1,2.35-1.71L929,596.92A3,3,0,0,1,931.64,598Z"/><path class="cls-40" d="M923.91,612.17l15.71,22.17a.39.39,0,0,1-.28.62l-26.93,2.66a.38.38,0,0,1-.36-.17l-14.59-22.17a.39.39,0,0,1,.28-.61L923.55,612A.39.39,0,0,1,923.91,612.17Z"/><path class="cls-43" d="M901.18,662.7,912,637.6a.28.28,0,0,1,.23-.16l27.2-2.69a.27.27,0,0,1,.28.38L928.32,660.5a.26.26,0,0,1-.23.16l-26.64,2.41A.27.27,0,0,1,901.18,662.7Z"/><path class="cls-44" d="M885.18,640.69l11.58-25.38a.46.46,0,0,1,.8-.07l14.48,22a.44.44,0,0,1,0,.43l-10.6,24.69a.46.46,0,0,1-.79.09l-15.46-21.31A.45.45,0,0,1,885.18,640.69Z"/><path class="cls-42" d="M693,843.91l15.43,18.7a1.74,1.74,0,0,1,.22,1.87l-11,23a1.76,1.76,0,0,1-1.41,1l-23.79,2.35a1.73,1.73,0,0,1-1.53-.64l-15.39-19.06a1.74,1.74,0,0,1-.22-1.83l10.13-21.9a1.73,1.73,0,0,1,1.37-1l24.64-3.06A1.75,1.75,0,0,1,693,843.91Z"/><path class="cls-40" d="M688.5,852.19l9.17,12.93a.23.23,0,0,1-.16.36L681.8,867a.23.23,0,0,1-.22-.1L673.07,854a.23.23,0,0,1,.17-.35l15-1.56A.23.23,0,0,1,688.5,852.19Z"/><path class="cls-43" d="M675.24,881.66,681.53,867a.14.14,0,0,1,.13-.09l15.87-1.57a.16.16,0,0,1,.16.22l-6.62,14.8a.15.15,0,0,1-.13.1l-15.54,1.4A.16.16,0,0,1,675.24,881.66Z"/><path class="cls-44" d="M665.91,868.82l6.75-14.8a.27.27,0,0,1,.47,0l8.45,12.84a.25.25,0,0,1,0,.25l-6.18,14.4a.27.27,0,0,1-.47,0l-9-12.43A.26.26,0,0,1,665.91,868.82Z"/><path class="cls-42" d="M791.81,721.62,816,723a1.74,1.74,0,0,1,1.52,1.11l9.35,23.69a1.73,1.73,0,0,1-.23,1.7l-14.46,19a1.76,1.76,0,0,1-1.51.69l-24.44-1.68a1.78,1.78,0,0,1-1.5-1.08l-9.16-22.32a1.76,1.76,0,0,1,.2-1.69l14.51-20.14A1.76,1.76,0,0,1,791.81,721.62Z"/><path class="cls-40" d="M794.81,730.56l15.72,2.07a.23.23,0,0,1,.15.37l-9.54,12.57a.24.24,0,0,1-.22.09l-15.27-2.56a.23.23,0,0,1-.15-.36l9.1-12.09A.22.22,0,0,1,794.81,730.56Z"/><path class="cls-43" d="M807.4,760.33,801,745.76a.15.15,0,0,1,0-.16l9.65-12.7a.16.16,0,0,1,.27,0l6.35,14.92a.14.14,0,0,1,0,.16l-9.54,12.35A.16.16,0,0,1,807.4,760.33Z"/><path class="cls-44" d="M791.64,758.44l-6.26-15a.26.26,0,0,1,.29-.36l15.16,2.53a.29.29,0,0,1,.2.16l6.35,14.33a.26.26,0,0,1-.27.37l-15.25-1.84A.27.27,0,0,1,791.64,758.44Z"/><path class="cls-42" d="M156.71,470l34.39-12.5a2.65,2.65,0,0,1,2.78.62L221,485.44a2.64,2.64,0,0,1,.69,2.49L213,523a2.64,2.64,0,0,1-1.68,1.86l-34.89,12.25a2.62,2.62,0,0,1-2.72-.6l-26-25.48a2.64,2.64,0,0,1-.73-2.46l8.1-36.6A2.62,2.62,0,0,1,156.71,470Z"/><path class="cls-40" d="M166.2,480.62l23-6.5a.35.35,0,0,1,.43.41l-5.73,23.14a.35.35,0,0,1-.26.25L161,503.5a.35.35,0,0,1-.42-.42l5.4-22.21A.36.36,0,0,1,166.2,480.62Z"/><path class="cls-43" d="M201.43,514.39l-17.65-16.34a.26.26,0,0,1-.07-.24l5.79-23.37a.24.24,0,0,1,.4-.12l17.72,16.9a.25.25,0,0,1,.07.23l-5.86,22.82A.24.24,0,0,1,201.43,514.39Z"/><path class="cls-44" d="M178.45,521.18l-17.65-17.1a.4.4,0,0,1,.18-.68l22.54-5.53a.41.41,0,0,1,.37.09L201.25,514a.4.4,0,0,1-.16.69l-22.24,6.55A.42.42,0,0,1,178.45,521.18Z"/><path class="cls-42" d="M977.75,513.49,1012.14,501a2.63,2.63,0,0,1,2.77.62L1042,528.9a2.65,2.65,0,0,1,.69,2.5l-8.69,35a2.62,2.62,0,0,1-1.69,1.85l-34.89,12.26a2.65,2.65,0,0,1-2.72-.6l-26-25.49A2.62,2.62,0,0,1,968,552l8.1-36.61A2.64,2.64,0,0,1,977.75,513.49Z"/><path class="cls-40" d="M987.24,524.09l23-6.51a.35.35,0,0,1,.43.42L1005,541.14a.34.34,0,0,1-.25.25L982,547a.34.34,0,0,1-.42-.41l5.4-22.21A.34.34,0,0,1,987.24,524.09Z"/><path class="cls-43" d="M1022.47,557.86l-17.65-16.35a.25.25,0,0,1-.07-.23l5.79-23.38a.24.24,0,0,1,.4-.11l17.72,16.89a.26.26,0,0,1,.06.24l-5.85,22.82A.25.25,0,0,1,1022.47,557.86Z"/><path class="cls-44" d="M999.49,564.65l-17.66-17.1a.4.4,0,0,1,.19-.68l22.53-5.54a.43.43,0,0,1,.38.1l17.36,16.08a.41.41,0,0,1-.16.69l-22.25,6.54A.39.39,0,0,1,999.49,564.65Z"/><path class="cls-42" d="M55.3,583l24.57,27.12a2.64,2.64,0,0,1,.47,2.8l-15,35.42a2.62,2.62,0,0,1-2,1.58l-35.72,5.2a2.65,2.65,0,0,1-2.35-.87L.66,626.59a2.65,2.65,0,0,1-.46-2.75L14,590.11a2.64,2.64,0,0,1,2-1.6l37-6.33A2.61,2.61,0,0,1,55.3,583Z"/><path class="cls-40" d="M49.08,595.8l14.73,18.87a.34.34,0,0,1-.23.55L40,618.66a.33.33,0,0,1-.33-.14L25.93,599.61a.35.35,0,0,1,.23-.55l22.6-3.39A.34.34,0,0,1,49.08,595.8Z"/><path class="cls-43" d="M31.13,641.18l8.46-22.52a.23.23,0,0,1,.19-.15L63.61,615a.24.24,0,0,1,.26.32l-8.95,22.79a.24.24,0,0,1-.19.15l-23.35,3.2A.23.23,0,0,1,31.13,641.18Z"/><path class="cls-44" d="M16.16,622.47l9.15-22.81a.42.42,0,0,1,.71-.09l13.64,18.78a.43.43,0,0,1,.05.38l-8.33,22.15a.4.4,0,0,1-.7.11L16.22,622.87A.39.39,0,0,1,16.16,622.47Z"/><path class="cls-42" d="M435.63,72.91l19.64,23.8a2.24,2.24,0,0,1,.29,2.38l-14,29.24a2.2,2.2,0,0,1-1.79,1.25l-30.29,3a2.24,2.24,0,0,1-1.95-.82l-19.58-24.26a2.21,2.21,0,0,1-.29-2.33l12.9-27.88A2.24,2.24,0,0,1,402.27,76l31.37-3.9A2.22,2.22,0,0,1,435.63,72.91Z"/><path class="cls-40" d="M429.89,83.44l11.67,16.47a.28.28,0,0,1-.21.45l-20,2a.3.3,0,0,1-.27-.13L410.25,85.75a.29.29,0,0,1,.21-.45l19.16-2A.3.3,0,0,1,429.89,83.44Z"/><path class="cls-43" d="M413,121l8-18.63a.18.18,0,0,1,.17-.12l20.2-2a.2.2,0,0,1,.21.28l-8.42,18.85a.24.24,0,0,1-.17.12l-19.79,1.79A.21.21,0,0,1,413,121Z"/><path class="cls-44" d="M401.13,104.62l8.6-18.85a.34.34,0,0,1,.59,0l10.76,16.35a.36.36,0,0,1,0,.32l-7.88,18.33a.34.34,0,0,1-.59.07L401.16,105A.35.35,0,0,1,401.13,104.62Z"/><path class="cls-42" d="M524,0,538.73,2.7a1.06,1.06,0,0,1,.85.79l3.95,15.22a1.06,1.06,0,0,1-.27,1L533,30.32a1.07,1.07,0,0,1-1,.3l-14.84-2.86a1.08,1.08,0,0,1-.84-.77l-3.94-14.37a1.07,1.07,0,0,1,.25-1L523,.35A1.08,1.08,0,0,1,524,0Z"/><path class="cls-40" d="M525.18,5.72l9.47,2.45a.14.14,0,0,1,.07.23l-6.79,7a.15.15,0,0,1-.14,0l-9.17-2.71a.14.14,0,0,1-.06-.24L525,5.76A.13.13,0,0,1,525.18,5.72Z"/><path class="cls-43" d="M530.66,24.9l-2.87-9.41a.08.08,0,0,1,0-.09l6.86-7.06a.1.1,0,0,1,.17,0L537.62,18a.08.08,0,0,1,0,.09l-6.77,6.85A.09.09,0,0,1,530.66,24.9Z"/><path class="cls-44" d="M521.14,22.56l-2.71-9.67a.17.17,0,0,1,.21-.21l9.1,2.7a.15.15,0,0,1,.11.11l2.82,9.25a.17.17,0,0,1-.2.21l-9.21-2.27A.2.2,0,0,1,521.14,22.56Z"/><path class="cls-42" d="M727,75.74l-13.36,22.6a1.9,1.9,0,0,1-1.82.92L684.36,96.5a1.94,1.94,0,0,1-1.52-1.07L671.69,72.06a1.92,1.92,0,0,1,.09-1.8l13.74-22.68a1.91,1.91,0,0,1,1.79-.91l26,2.26a1.85,1.85,0,0,1,1.52,1l12.19,24A1.87,1.87,0,0,1,727,75.74Z"/><path class="cls-40" d="M716.91,74.2l-9.8,14.1a.25.25,0,0,1-.43,0l-7.36-15.42a.27.27,0,0,1,0-.26l10-13.43a.24.24,0,0,1,.42,0L716.93,74A.25.25,0,0,1,716.91,74.2Z"/><path class="cls-43" d="M682,71.55l17.22,1a.15.15,0,0,1,.14.1l7.45,15.58a.18.18,0,0,1-.17.25L689.14,87.2a.18.18,0,0,1-.15-.1l-7.15-15.31A.17.17,0,0,1,682,71.55Z"/><path class="cls-44" d="M691.64,57.32l17.57,1.42a.29.29,0,0,1,.21.46l-10,13.34a.3.3,0,0,1-.25.11l-17-1a.3.3,0,0,1-.22-.46l9.34-13.76A.3.3,0,0,1,691.64,57.32Z"/><path class="cls-42" d="M1051.59,240.84l24,29.1a2.73,2.73,0,0,1,.36,2.91l-17.15,35.75a2.71,2.71,0,0,1-2.19,1.53l-37,3.66a2.75,2.75,0,0,1-2.39-1l-23.94-29.66a2.73,2.73,0,0,1-.35-2.86l15.76-34.08a2.76,2.76,0,0,1,2.14-1.56l38.35-4.76A2.7,2.7,0,0,1,1051.59,240.84Z"/><path class="cls-40" d="M1044.58,253.72l14.27,20.13a.36.36,0,0,1-.26.56l-24.45,2.42a.36.36,0,0,1-.33-.16l-13.25-20.13a.35.35,0,0,1,.26-.55l23.43-2.42A.36.36,0,0,1,1044.58,253.72Z"/><path class="cls-43" d="M1023.94,299.6l9.78-22.79a.24.24,0,0,1,.2-.15l24.71-2.44a.24.24,0,0,1,.25.34l-10.3,23.05a.25.25,0,0,1-.2.14l-24.2,2.19A.24.24,0,0,1,1023.94,299.6Z"/><path class="cls-44" d="M1009.41,279.61l10.51-23.05a.42.42,0,0,1,.73-.05l13.15,20a.41.41,0,0,1,0,.39l-9.63,22.42a.42.42,0,0,1-.72.08l-14-19.35A.42.42,0,0,1,1009.41,279.61Z"/><path class="cls-42" d="M869.85,215.46l19.71,4.39a1.48,1.48,0,0,1,1.11,1.11l4.52,20.74a1.46,1.46,0,0,1-.42,1.37l-14.43,13.72a1.47,1.47,0,0,1-1.34.37l-19.87-4.65a1.47,1.47,0,0,1-1.09-1.09l-4.55-19.58a1.46,1.46,0,0,1,.39-1.36l14.62-14.62A1.47,1.47,0,0,1,869.85,215.46Z"/><path class="cls-40" d="M871.12,223.21,883.77,227a.19.19,0,0,1,.08.32l-9.53,9.06a.17.17,0,0,1-.19,0l-12.22-4.14a.19.19,0,0,1-.07-.31l9.1-8.73A.18.18,0,0,1,871.12,223.21Z"/><path class="cls-43" d="M877.5,249.37l-3.36-12.84a.16.16,0,0,1,0-.13l9.63-9.16a.13.13,0,0,1,.22.07l3.23,13.11a.12.12,0,0,1,0,.13l-9.5,8.88A.13.13,0,0,1,877.5,249.37Z"/><path class="cls-44" d="M864.8,245.71l-3.15-13.19a.22.22,0,0,1,.29-.26l12.13,4.11a.21.21,0,0,1,.14.15l3.31,12.64a.22.22,0,0,1-.28.27L865,245.88A.22.22,0,0,1,864.8,245.71Z"/></g></g></svg>