<svg xmlns="http://www.w3.org/2000/svg" viewBox="0 0 842.98 759.15"><defs><style>.cls-1{fill:#f2f2f2;}.cls-2{fill:#fff;}.cls-3{opacity:0.1;isolation:isolate;}.cls-4{fill:#2f2e41;}.cls-5{fill:#a0616a;}.cls-6{fill:#d0cde1;}.cls-7{fill:#575a89;}.cls-8{fill:#3f3d56;}.cls-9{fill:#eb8760;}</style></defs><g id="Layer_2" data-name="Layer 2"><g id="b4f7138d-771a-4302-9114-b1a94238dcbb"><path class="cls-1" d="M787,446.05A298.78,298.78,0,0,0,766,183.15L288.66,249.24l457.45-95.33A297.74,297.74,0,0,0,509.73,37.53C345,37.53,211.46,171.07,211.46,335.8a301.2,301.2,0,0,0,2.78,40.7Z"/><path class="cls-1" d="M231.4,443.19c43.11,111.66,151.46,190.88,278.33,190.88,119,0,221.79-69.75,269.63-170.61Z"/><path class="cls-2" d="M772,546.93c0,117.21-172.82,212.22-386,212.22-114.52,0-217.39-27.41-288.08-71-46.12-28.42-78.54-63.7-91.55-102.7A121.18,121.18,0,0,1,0,546.93C0,429.72,319.87-99,386,334.71S772,429.72,772,546.93Z"/><path class="cls-3" d="M577.82,623.89c0,43.28-136.68,78.37-305.28,78.37-65,0-125.15-5.21-174.63-14.08-46.12-28.42-78.54-63.7-91.55-102.7,52.35-23.85,151.93-40,266.18-40C441.14,545.52,577.82,580.61,577.82,623.89Z"/><path class="cls-4" d="M357.46,177.5c-24.2-40.88-72.06-42.78-72.06-42.78s-46.65-6-76.57,56.3c-27.89,58-66.38,114.06-6.19,127.65l10.87-33.84,6.73,36.36a237.85,237.85,0,0,0,25.75.44c64.45-2.09,125.83.6,123.85-22.52C367.22,268.36,380.74,216.84,357.46,177.5Z"/><path class="cls-4" d="M199.2,535.52c-.9,4.46-1.56,9-3.09,13.28s-3.85,8.2-5.23,12.5c-4.42,13.71,1.7,29,11.47,39.58a64.63,64.63,0,0,0,31.49,18.7c8.81,2.21,18,2.53,27.06,2.84,25.15.85,51,1.62,74.78-6.47a129.24,129.24,0,0,0,21.73-9.87,16.16,16.16,0,0,0,5.64-4.44c1.82-2.58,2.05-5.94,2-9.1-.05-10.66-2.21-21.27-1.7-31.92.28-5.9,1.39-11.8.85-17.68-1.24-13.33-11.83-25.27-24.92-28.08-6.76-1.45-13.78-.66-20.66,0a524.47,524.47,0,0,1-53.76,2.4c-18.34-.12-36.56-2.91-54.81-3.21-5.4-.08-5.29,1.58-7,6.8A128.19,128.19,0,0,0,199.2,535.52Z"/><path class="cls-5" d="M251.24,272.24c-.88,4.61-1.83,9.4-4.6,13.19-3.19,4.36-8.4,6.86-11.83,11-5.16,6.29-5.46,15.13-5.48,23.27,0,7.49.13,15.48,4.31,21.71,2.71,4,6.84,6.86,10.87,9.58,15.68,10.57,32.61,21.32,51.51,21.67,7.83.14,16.23-1.88,21.38-7.78a32.42,32.42,0,0,0,5.18-9.23,122.78,122.78,0,0,0,8.68-37.33c.43-6,.39-12.24-1.66-17.94-2.29-6.4-6.93-11.66-10-17.73a39.49,39.49,0,0,1-3.8-23.37,2.52,2.52,0,0,0-.14-1.69,2.44,2.44,0,0,0-2-.82l-37.47-2.7a80.76,80.76,0,0,1-10.4-1.19c-2-.41-7.36-3.28-9.28-2.52C252.91,251.8,252,268.41,251.24,272.24Z"/><path class="cls-3" d="M251.24,273.41c-.88,4.61-1.83,9.4-4.6,13.19-3.19,4.36-8.4,6.86-11.83,11-5.16,6.29-5.46,15.13-5.48,23.27,0,7.49.13,15.48,4.31,21.71,2.71,4,6.84,6.86,10.87,9.58,15.68,10.57,32.61,21.32,51.51,21.67,7.83.14,16.23-1.88,21.38-7.78a32.42,32.42,0,0,0,5.18-9.23,122.78,122.78,0,0,0,8.68-37.33c.43-6,.39-12.24-1.66-17.94-2.29-6.4-6.93-11.66-10-17.73a39.49,39.49,0,0,1-3.8-23.37,2.52,2.52,0,0,0-.14-1.69,2.44,2.44,0,0,0-2-.82l-37.47-2.7a82.56,82.56,0,0,1-10.4-1.19c-2-.41-7.36-3.28-9.28-2.52C252.91,253,252,269.58,251.24,273.41Z"/><circle class="cls-5" cx="287.08" cy="222.29" r="54.97"/><path class="cls-6" d="M259,345.42c2.87,3,5.91,6,9.66,7.72s7.94,2.18,12.06,2.29c9.91.28,20.66-1.53,27.55-8.66,8.89-9.18,8.59-24,15.56-34.71a7.73,7.73,0,0,1,2.24-2.45,7.27,7.27,0,0,1,3.82-.88c8.8-.08,16.46,5.62,23.38,11.06,3.09,2.43,6.27,5,8.22,8.38a28.37,28.37,0,0,1,2.78,8.5c3.43,16.75,4.54,33.88,5.65,50.95.61,9.42,1.21,18.86,1.17,28.3-.15,31.12-7.38,61.72-14.58,92-.92,3.9-2.19,8.26-5.74,10.13a14,14,0,0,1-5,1.22c-20.6,2.42-41.25,4.85-62,5.17q-12.14.18-24.27-.59a13.27,13.27,0,0,1-4.09-.71,11.61,11.61,0,0,1-4.46-3.79c-11.22-14.14-11.88-33.68-11.81-51.73q.27-66.19,4.73-132.27c.25-3.64.3-8.06-2.32-10.92C246.22,332,252.78,339,259,345.42Z"/><path class="cls-7" d="M247.31,281.94c-1.86,3.36-15.55,11.71-18.19,14.5-14.77,15.56-41.71,15-55.22,31.65-4.75,5.86-7.22,13.23-9,20.56-2.57,10.36-3.94,21.66.36,31.43,4.14,9.4,12.85,15.9,18.77,24.3,6.49,9.22,9.41,20.42,12.21,31.34,2.07,8.07,4.15,16.34,3.34,24.63-.91,9.42-5.47,18-8.16,27.13s-3.16,19.89,3.07,27c4.57,5.24,11.74,7.32,18.6,8.49a213.73,213.73,0,0,0,26.52,2.31c7.84.34,16.48.41,22.51-4.61,4.75-4,6.82-10.4,7.08-16.59s-1-12.32-1.82-18.45c-.84-6.37-1.16-12.79-1.43-19.2q-1.8-43.15-.49-86.37c.18-6,.4-12.07-.87-17.93-1.69-7.7-5.85-14.59-9.33-21.67-6.89-14.06-10.16-27.71-9.09-43.33C247.19,281.73,253.92,270,247.31,281.94Z"/><path class="cls-7" d="M324.51,283.11c2.83,2.91,12.44,3.87,16,5.74,3.31,1.72,7,2.62,10.55,3.65a136.81,136.81,0,0,1,37,17,22.46,22.46,0,0,1,6.19,5.34c2,2.8,2.74,6.3,3.43,9.68,1.76,8.72,3.53,17.56,3.13,26.45-.42,9.44-3.26,18.58-6.08,27.6l-10.54,33.7c-7.87,25.15-15.79,50.55-18,76.81a180.52,180.52,0,0,0,1.62,43.63c.23,1.45.43,3.11-.53,4.23a4.2,4.2,0,0,1-2.58,1.18c-5.09.8-10-1.79-14.62-4.09a161.92,161.92,0,0,0-44.63-14.6,103.9,103.9,0,0,0,13.86-28.58,175.13,175.13,0,0,0,4.19-19.65l4.9-28.36c1.8-10.4,3.6-20.82,4.21-31.36a39,39,0,0,0-.69-11.81c-.93-3.75-2.8-7.18-4.47-10.66-8.08-16.81-11.88-36-8.7-54.36,1.39-8,4.1-16.1,3-24.18-1.08-7.78,0-13.82-1.95-21.51C311.64,257.38,319.19,277.64,324.51,283.11Z"/><path class="cls-7" d="M173.76,354.66c-3.68,7.65-9.84,14.16-11.94,22.38a49.45,49.45,0,0,0-1,11.7c-.05,5.92-.08,12,1.74,17.59,1.17,3.63,3.07,7,4.44,10.52a38.27,38.27,0,0,1,2.5,15.6c-.37,7.36-2.87,14.51-3.07,21.88-.3,11.59,5.06,22.49,10.29,32.83a24.14,24.14,0,0,1,31.42-13.34,23.75,23.75,0,0,1,3.66,1.86c1.38-1.28,1.53-3.37,1.58-5.25q.58-20.16,1.12-40.34c.57-20.8,1.11-41.87-3.67-62.12-2.16-9.14-5.53-18.25-11.69-25.34-3.24-3.73-14.26-13.57-19.58-9.39-2.4,1.89-1.84,7-2.22,9.6A40.44,40.44,0,0,1,173.76,354.66Z"/><path class="cls-7" d="M402,332.63c1.74,5.43,1.84,11.23,1.88,16.92q.1,17.44-.46,34.87c-.2,5.95-.46,12-2.27,17.66-1.19,3.74-3,7.25-4.25,11-3.68,11.18-1.67,23.3-1.36,35.06a39.68,39.68,0,0,1-1,11.34c-1.94,7.29-7.17,13.18-10.81,19.79-3.46,6.27-5.55,13.3-9.69,19.16s-11.29,10.49-18.22,8.69c-5.26-1.36-9-6-11.58-10.79A52.92,52.92,0,0,1,338.76,462c2.59-14.27,11-26.93,14-41.12,4.15-19.49-2.16-39.6-2-59.52a28.78,28.78,0,0,1,1.26-9.22c1.58-4.55,5-8.19,8.13-11.84a147.61,147.61,0,0,0,10.94-14.35c2.26-3.36,5.32-12,9.31-12.72C389.35,311.59,399.74,325.74,402,332.63Z"/><path class="cls-4" d="M127.49,526.85a54.09,54.09,0,0,0-15.1-1.6,37.67,37.67,0,0,0-35.53,39.69,35.75,35.75,0,0,0,.56,4.72c1,5.72,3.41,11.12,6,16.34,4,8.13,8.8,16.23,16.21,21.44,4.34,3,9.36,4.94,14.31,6.81L153,629c5.75,2.17,11.49,4.33,17.29,6.33a338,338,0,0,0,90.27,18c9.37.56,18.89.71,28-1.42,2.17-.51,4.48-1.26,5.74-3.1a9.92,9.92,0,0,0,1.28-4.24l2.4-16.81c.34-2.37.67-4.86-.2-7.09-1.1-2.82-3.86-4.6-6.49-6.11-25.66-14.74-55.62-22.87-77.22-43.1-5.08-4.76-9.34-12.31-15.52-15.54-7-3.67-15.25-5.76-22.49-9.14C160.21,539.29,144.64,530.8,127.49,526.85Z"/><path class="cls-3" d="M166.45,549.52c13.8,4.32,72.05,34.27,82,44.73-1.34.48-46.74-25-48.11-25.37-12.38-3.72-24.83-7.46-36.59-12.9-2.37-1.1-15.37-6.24-14.78-9.22C149.66,543.39,164,548.75,166.45,549.52Z"/><path class="cls-5" d="M338.56,662a3.24,3.24,0,0,0,2.19-.64,3.36,3.36,0,0,0,.68-2.52l-.06-22.91c-6.59-3.13-13.95-4.14-21.19-5.11l-33.74-4.51c.78.11-5.28,14.54-4.35,16.46,1.64,3.4,14.13,6.41,17.66,8C312,656.3,324.75,662.43,338.56,662Z"/><path class="cls-5" d="M232.69,635.81c-6.37,1-13.48,1.91-17.6,6.87-5.24,6.29-3,15.66-.51,23.45a10,10,0,0,0,2.17,4.27c1.7,1.68,4.31,1.93,6.7,2.08,5.81.37,12,.66,17.07-2.19,2.4-1.35,4.39-3.33,6.63-4.93a42.5,42.5,0,0,1,12.19-5.58,123.92,123.92,0,0,1,24.48-5c3.25-.33,6.57-.55,9.64-1.7s5.9-3.44,6.79-6.59c1.17-4.17-1.25-8.41-3.57-12.06-2.89-4.55-5.95-9.34-10.26-12.68-6.29-4.89-9.4-1.14-15.73,2A134,134,0,0,1,232.69,635.81Z"/><path class="cls-4" d="M216,641.54l-40.45-11.95c-4.92-1.46-9.92-2.92-15.05-2.92s-10.5,1.69-13.83,5.59c-3.14,3.68-4,8.71-4.82,13.49L140.22,656c-.85,5.19-1.7,10.48-.94,15.68s3.42,10.4,8,12.92c5.6,3.05,12.46,1.56,18.71.28a204,204,0,0,1,38.33-4.11c4.85-.06,9.92,0,14.2-2.26,5.09-2.7,8.13-8.4,8.66-14.13C228,655.62,225.1,644.22,216,641.54Z"/><path class="cls-4" d="M354.47,631.12c5.24-.91,9.87-3.9,14.89-5.65C376.44,623,384.1,623,391.6,623c2.75,0,5.68.07,8,1.59,3.3,2.2,4.14,6.6,4.71,10.52Q406,647,407.66,658.82c.64,4.45,1.27,9,.28,13.42s-4,8.62-8.34,9.75c-5.29,1.38-10.48-2-15.47-4.22-12.49-5.55-27-4.13-40-8.28-2.41-.77-5-2-6-4.28a9.64,9.64,0,0,1-.47-4.09c.22-7.62-1.38-18,.91-25.29C340.63,629.29,348.61,631.12,354.47,631.12Z"/><path class="cls-4" d="M440.08,517.32a70.11,70.11,0,0,1,24.74-1.69c6.62.73,13.44,2.57,18.27,7.15,5.87,5.57,7.76,14.19,7.92,22.29a69.63,69.63,0,0,1-15.14,44.48,40.44,40.44,0,0,1-8.65,8.33A56.71,56.71,0,0,1,456,603.31l-87.41,34.47c-23,9.07-46.07,18.17-70.06,24.15a5.46,5.46,0,0,1-7.29-2.55l-.05-.12a180.54,180.54,0,0,1-19.16-35,2.35,2.35,0,0,1,.33-3.32,2.28,2.28,0,0,1,.71-.4L334.86,585c4.43-2.55,8.9-5.13,12.58-8.67a31.28,31.28,0,0,0,6.46-9c1.28-2.68,1.4-9,3-11s7.09-2.09,9.62-2.85a88.64,88.64,0,0,0,10.47-4c13.83-6.19,26.14-15.18,39.4-22.42A101.26,101.26,0,0,1,440.08,517.32Z"/><path class="cls-3" d="M405,543.85c-10.62,8-24.38,15.31-34.9,23.5-3.6,2.79-63.49,36.46-64.34,40.93,9.82,1.66,72.39-42.11,81.34-46.48s16.88-10.52,24.75-16.63c2-1.56,10.49-6.25,4.74-8C413.38,536.2,407.42,542.25,405,543.85Z"/><path class="cls-8" d="M331.94,283.89H238.7a14.28,14.28,0,0,0-14.28,14.28v5.23h-1v11.7h1v8.18h-1v7h1v86.31a14.29,14.29,0,0,0,14.28,14.28h93.24a14.29,14.29,0,0,0,14.29-14.28V298.17A14.28,14.28,0,0,0,331.94,283.89Z"/><polygon class="cls-4" points="346.76 173.56 299.47 148.79 234.17 158.93 220.66 218.6 254.29 217.31 263.69 195.38 263.69 216.95 279.2 216.35 288.21 181.44 293.84 218.6 349.01 217.47 346.76 173.56"/><path class="cls-5" d="M186.13,509.59c2.34,3.49,5.08,6.9,8.83,8.78,4.69,2.35,10.48,1.93,15.17-.41a26.66,26.66,0,0,0,11-11c5.13-9.07,6.2-19.93,5.56-30.34s-2.87-20.66-3.85-31c-.72-7.55-.77-15.15-.83-22.73,0-1.59,0-3.31.95-4.59,1.14-1.56,3.23-2,5.07-2.53,10.38-3.09,17.26-12.81,22.2-22.44,3.29-6.43,6.16-13.46,5.52-20.65s-5.81-14.45-13-15.18c-5.93-.61-11.4,3.15-15.68,7.3a67.19,67.19,0,0,0-19.67,39.33c-.94,7.32-.67,14.83-2.66,21.94-4.25,15.17-17.55,24.47-24.18,38.12C173.23,479.21,177.26,496.28,186.13,509.59Z"/><path class="cls-5" d="M381.81,451.64a28.67,28.67,0,0,1-16.07,15.44,22.18,22.18,0,0,1-14,.86,15.51,15.51,0,0,1-10.24-9.16,24.67,24.67,0,0,1-1.15-6.88c-.67-10.23-.41-20.77,3.31-30.32,1.43-3.69,3.36-7.18,4.49-11,1.29-4.32,1.5-8.88,1.7-13.39l1.22-27.91a18.13,18.13,0,0,0-.42-6.05c-1.21-4-5-6.66-8.45-9.07-8.37-5.82-16.63-12.6-20.68-21.95-1.24-2.86-2.06-6-1.43-9.09,1.14-5.55,6.73-9.13,12.26-10.34A27.43,27.43,0,0,1,365,333.75c.09.39.16.77.23,1.16.55,3.15.54,6.37.86,9.55.68,6.75,2.82,13.25,4.16,19.9,3.3,16.38,1.59,33.3,4.86,49.68C377.86,427.73,388.16,436.66,381.81,451.64Z"/><circle class="cls-6" cx="286.57" cy="334.98" r="11.7"/><circle class="cls-2" cx="762.83" cy="179.74" r="45.17"/><ellipse class="cls-2" cx="491.02" cy="64.96" rx="55.32" ry="58.46"/><circle class="cls-2" cx="778.27" cy="409.7" r="45.17"/><path class="cls-9" d="M780.32,347.5A62.67,62.67,0,1,0,843,410.17h0A62.66,62.66,0,0,0,780.32,347.5Zm31,46.77c0,.68.05,1.37.05,2.07,0,21.14-16.07,45.51-45.5,45.51a44.64,44.64,0,0,1-24.46-7.23,32.48,32.48,0,0,0,3.81.24A32.06,32.06,0,0,0,765.05,428a16,16,0,0,1-14.94-11.11,15.19,15.19,0,0,0,3,.3,16.12,16.12,0,0,0,4.21-.56A16,16,0,0,1,744.5,401v-.2a15.66,15.66,0,0,0,7.26,2,16,16,0,0,1-5-21.36,45.32,45.32,0,0,0,33,16.72A16,16,0,0,1,807,383.55a32,32,0,0,0,10.15-3.88,16.08,16.08,0,0,1-7,8.84,32.21,32.21,0,0,0,9.17-2.52A32.34,32.34,0,0,1,811.29,394.27Z"/><circle class="cls-9" cx="760.17" cy="173.21" r="11.13"/><path class="cls-9" d="M774.09,145.37H746.25a14,14,0,0,0-13.92,13.92v27.83A14,14,0,0,0,746.25,201h27.84A14,14,0,0,0,788,187.12V159.29A14,14,0,0,0,774.09,145.37Zm-13.92,44.54a16.71,16.71,0,1,1,16.7-16.7A16.7,16.7,0,0,1,760.17,189.91Zm18.1-30.62a4.18,4.18,0,1,1,4.17-4.18,4.18,4.18,0,0,1-4.17,4.18Z"/><path class="cls-9" d="M759.38,108.14a66.07,66.07,0,1,0,66.06,66.07h0A66.07,66.07,0,0,0,759.38,108.14Zm34.12,79.4A19.55,19.55,0,0,1,774,207H746.17a19.54,19.54,0,0,1-19.48-19.49V159.7a19.53,19.53,0,0,1,19.48-19.48H774A19.54,19.54,0,0,1,793.5,159.7Z"/><path class="cls-9" d="M491,0a65,65,0,1,0,65,65A65,65,0,0,0,491,0Zm20.5,39.33h-8.33c-5.68,0-6.76,2.69-6.76,6.65v8.41H510l-1.77,13.2H496.43v35.83H481.34V67.59H470.52V54.39h10.82V44.63c0-11.69,8.11-18.05,18.55-18.05,5,0,10.38.38,11.63.54Z"/></g></g></svg>